<?xml version="1.0" standalone="no"?><!DOCTYPE svg PUBLIC "-//W3C//DTD SVG 1.1//EN" "http://www.w3.org/Graphics/SVG/1.1/DTD/svg11.dtd"><svg width="100%" height="100%" viewBox="0 0 163 156" version="1.1" xmlns="http://www.w3.org/2000/svg" xmlns:xlink="http://www.w3.org/1999/xlink" xml:space="preserve" style="fill-rule:evenodd;clip-rule:evenodd;stroke-miterlimit:22.926;"><g><path d="M141.572,84.7447c-6.153,28.302 -31.343,49.5 -61.489,49.5c-26.131,0 -48.54,-15.929 -58.053,-38.604l58.054,-24.327l61.488,13.431Z" style="fill:#000;"/><path d="M141.572,84.7447c-6.153,28.302 -31.343,49.5 -61.489,49.5c-26.131,0 -48.54,-15.929 -58.053,-38.604l58.054,-24.327l61.488,13.431Z" style="fill:#000;fill-rule:nonzero;stroke-width:1.92px;stroke:#fff;"/><path d="M68.2237,33.9205l11.86,37.394l7.882,-38.427c-2.546,-0.52 -5.182,-0.793 -7.883,-0.793c-4.133,0 -8.117,0.64 -11.859,1.826" style="fill:#000;stroke-width:1.92px;stroke-linecap:round;stroke-linejoin:round;stroke:#fff;"/><path d="M90.1934,22.0299c22.935,4.68 40.191,24.967 40.191,49.284c0,3.686 -0.4,7.277 -1.152,10.736l-49.149,-10.736l10.11,-49.284Z" style="fill:#000;"/><path d="M90.1934,22.0299c22.935,4.68 40.191,24.967 40.191,49.284c0,3.686 -0.4,7.277 -1.152,10.736l-49.149,-10.736l10.11,-49.284Z" style="fill:#000;fill-rule:nonzero;stroke-width:1.92px;stroke:#fff;"/><path d="M54.9474,81.8463c-1.359,-3.24 -2.111,-6.798 -2.111,-10.532c0,-12.177 7.987,-22.486 19.008,-25.978l8.239,25.978l-25.136,10.532Z" style="fill:#000;"/><path d="M54.9474,81.8463c-1.359,-3.24 -2.111,-6.798 -2.111,-10.532c0,-12.177 7.987,-22.486 19.008,-25.978l8.239,25.978l-25.136,10.532Z" style="fill:#000;fill-rule:nonzero;stroke-width:1.92px;stroke:#fff;"/></g></svg>