<?xml version="1.0" standalone="no"?>
<!DOCTYPE svg PUBLIC "-//W3C//DTD SVG 1.1//EN" "http://www.w3.org/Graphics/SVG/1.1/DTD/svg11.dtd">
<svg width="100%" height="100%" viewBox="0 0 194 194" version="1.1" xmlns="http://www.w3.org/2000/svg" xmlns:xlink="http://www.w3.org/1999/xlink" xml:space="preserve" style="fill-rule:evenodd;clip-rule:evenodd;stroke-linecap:round;stroke-linejoin:round;stroke-miterlimit:22.926;">
    <g>
        <g>
            <path d="M32.9217,161.782L32.9217,32.9224L161.782,32.9224L161.782,161.782L32.9217,161.782ZM35.9217,158.782L158.782,158.782L158.782,35.9224L35.9217,35.9224L35.9217,158.782Z" style="fill:black;"/>
            <rect x="32.9231" y="34.4217" width="3" height="125.86" style="fill:black;"/>
            <rect x="58.094" y="34.4217" width="3" height="125.86" style="fill:black;"/>
            <rect x="34.4225" y="58.0936" width="125.86" height="3" style="fill:black;"/>
            <rect x="34.4225" y="83.2645" width="125.86" height="3" style="fill:black;"/>
            <rect x="34.4225" y="108.436" width="125.86" height="3" style="fill:black;"/>
            <rect x="34.4225" y="133.609" width="125.86" height="3" style="fill:black;"/>
            <rect x="83.2659" y="34.4217" width="3" height="125.86" style="fill:black;"/>
            <rect x="108.437" y="34.4217" width="3" height="125.86" style="fill:black;"/>
            <rect x="133.611" y="34.4217" width="3" height="125.86" style="fill:black;"/>
            <rect x="158.781" y="34.4217" width="3" height="125.86" style="fill:black;"/>
            <path d="M34.4221,78.6785L59.5941,72.3545L72.1361,111.271L96.6111,55.0245L109.938,83.9935L160.282,46.7145" style="fill:none;stroke-width:3px;stroke:black;"/>
            <path d="M59.594,75.7283C61.453,75.7283 62.969,74.2123 62.969,72.3533C62.969,70.4953 61.453,68.9783 59.594,68.9783C57.736,68.9783 56.219,70.4953 56.219,72.3533C56.219,74.2123 57.736,75.7283 59.594,75.7283" style="fill:white;"/>
            <path d="M59.6131,77.2282L59.594,75.7283L59.5749,77.2282L59.469,77.2268L59.3445,77.2221L59.2206,77.2142L59.0975,77.2032L58.9752,77.1891L58.8537,77.172L58.7331,77.152L58.6135,77.1289L58.4948,77.103L58.3772,77.0742L58.2608,77.0425L58.1455,77.0081L58.0315,76.9709L57.9187,76.9311L57.8072,76.8885L57.697,76.8434L57.5882,76.7957L57.4809,76.7454L57.375,76.6927L57.2707,76.6375L57.1679,76.5799L57.0667,76.52L56.967,76.4577L56.8691,76.3931L56.7728,76.3263L56.6783,76.2573L56.5855,76.1861L56.4945,76.1127L56.4053,76.0373L56.318,75.9598L56.2326,75.8803L56.1491,75.7988L56.0676,75.7153L55.988,75.6299L55.9105,75.5426L55.8351,75.4534L55.7617,75.3625L55.6905,75.2697L55.6214,75.1751L55.5546,75.0789L55.49,74.9809L55.4277,74.8813L55.3677,74.7801L55.3101,74.6773L55.2549,74.5729L55.2022,74.467L55.1519,74.3597L55.1041,74.2509L55.059,74.1407L55.0164,74.0292L54.9765,73.9164L54.9393,73.8022L54.9049,73.6869L54.8732,73.5705L54.8444,73.4529L54.8184,73.3342L54.7954,73.2145L54.7753,73.0939L54.7582,72.9723L54.7441,72.85L54.7331,72.7268L54.7252,72.6029L54.7205,72.4784L54.7189,72.3533L54.7205,72.2282L54.7252,72.1037L54.7331,71.9799L54.7441,71.8567L54.7582,71.7344L54.7753,71.6129L54.7954,71.4923L54.8185,71.3726L54.8444,71.254L54.8732,71.1364L54.9049,71.0199L54.9393,70.9047L54.9765,70.7906L55.0164,70.6777L55.059,70.5662L55.1042,70.4561L55.1519,70.3473L55.2022,70.24L55.2549,70.1341L55.3101,70.0298L55.3677,69.9269L55.4277,69.8257L55.49,69.7261L55.5546,69.6282L55.6214,69.532L55.6905,69.4374L55.7617,69.3446L55.835,69.2537L55.9104,69.1645L55.988,69.0772L56.0675,68.9918L56.149,68.9083L56.2325,68.8268L56.3179,68.7473L56.4052,68.6697L56.4943,68.5943L56.5853,68.521L56.6781,68.4498L56.7726,68.3807L56.8689,68.3139L56.9668,68.2493L57.0665,68.187L57.1676,68.127L57.2705,68.0694L57.3748,68.0142L57.4806,67.9615L57.588,67.9112L57.6968,67.8635L57.8069,67.8183L57.9185,67.7757L58.0313,67.7359L58.1453,67.6987L58.2606,67.6642L58.3771,67.6325L58.4947,67.6037L58.6133,67.5778L58.7329,67.5547L58.8536,67.5346L58.9751,67.5175L59.0974,67.5034L59.2206,67.4924L59.3444,67.4845L59.4689,67.4798L59.594,67.4782L59.7191,67.4798L59.8436,67.4845L59.9675,67.4924L60.0907,67.5034L60.213,67.5175L60.3346,67.5346L60.4552,67.5547L60.5749,67.5777L60.6936,67.6037L60.8112,67.6325L60.9276,67.6642L61.043,67.6986L61.1571,67.7358L61.2698,67.7757L61.3814,67.8183L61.4916,67.8634L61.6004,67.9112L61.7077,67.9615L61.8136,68.0142L61.918,68.0694L62.0208,68.127L62.122,68.187L62.2216,68.2493L62.3196,68.3139L62.4159,68.3808L62.5103,68.4498L62.6031,68.521L62.6942,68.5944L62.7833,68.6698L62.8706,68.7474L62.956,68.8269L63.0395,68.9084L63.121,68.9919L63.2005,69.0773L63.278,69.1646L63.3534,69.2538L63.4268,69.3448L63.4979,69.4376L63.567,69.5321L63.6338,69.6284L63.6984,69.7263L63.7606,69.8259L63.8206,69.9272L63.8782,70.03L63.9334,70.1343L63.9861,70.2402L64.0364,70.3475L64.0841,70.4563L64.1292,70.5665L64.1718,70.678L64.2116,70.7908L64.2488,70.9048L64.2832,71.0201L64.3149,71.1366L64.3437,71.2541L64.3696,71.3727L64.3927,71.4924L64.4127,71.613L64.4298,71.7345L64.4439,71.8568L64.4549,71.98L64.4628,72.1038L64.4675,72.2282L64.4691,72.3533L64.4675,72.4784L64.4628,72.6029L64.4549,72.7267L64.4439,72.8499L64.4298,72.9722L64.4127,73.0937L64.3927,73.2143L64.3696,73.334L64.3437,73.4527L64.3149,73.5702L64.2832,73.6867L64.2488,73.802L64.2116,73.9161L64.1718,74.029L64.1292,74.1405L64.0841,74.2507L64.0364,74.3594L63.9861,74.4668L63.9334,74.5727L63.8782,74.677L63.8206,74.7799L63.7606,74.8811L63.6984,74.9807L63.6338,75.0787L63.5669,75.175L63.4979,75.2695L63.4267,75.3623L63.3534,75.4533L63.2779,75.5424L63.2004,75.6297L63.1209,75.7152L63.0394,75.7987L62.9559,75.8802L62.8705,75.9597L62.7832,76.0372L62.694,76.1127L62.603,76.186L62.5102,76.2572L62.4157,76.3262L62.3194,76.3931L62.2214,76.4577L62.1218,76.5199L62.0206,76.5799L61.9178,76.6375L61.8134,76.6927L61.7075,76.7454L61.6002,76.7957L61.4914,76.8434L61.3812,76.8886L61.2696,76.9311L61.1568,76.971L61.0428,77.0081L60.9274,77.0425L60.811,77.0742L60.6934,77.103L60.5747,77.1289L60.455,77.152L60.3344,77.172L60.213,77.1891L60.0906,77.2032L59.9674,77.2142L59.8436,77.2221L59.7191,77.2268L59.6131,77.2282ZM59.594,74.2282L59.6427,74.2276L59.6909,74.2257L59.7387,74.2227L59.7859,74.2185L59.8328,74.2131L59.8792,74.2065L59.9252,74.1989L59.9708,74.1901L60.0159,74.1802L60.0606,74.1693L60.1049,74.1573L60.1488,74.1442L60.1923,74.13L60.2353,74.1148L60.2778,74.0986L60.3198,74.0814L60.3614,74.0631L60.4026,74.0438L60.4432,74.0236L60.4833,74.0024L60.5229,73.9803L60.5619,73.9571L60.6004,73.9331L60.6382,73.9081L60.6755,73.8822L60.7122,73.8554L60.7482,73.8278L60.7835,73.7993L60.8182,73.77L60.8521,73.7399L60.8854,73.7089L60.9179,73.6772L60.9496,73.6447L60.9806,73.6115L61.0107,73.5775L61.04,73.5428L61.0685,73.5075L61.0962,73.4715L61.1229,73.4348L61.1488,73.3976L61.1738,73.3597L61.1978,73.3212L61.2209,73.2822L61.2431,73.2426L61.2643,73.2025L61.2846,73.1619L61.3038,73.1208L61.3221,73.0791L61.3393,73.0371L61.3555,72.9946L61.3707,72.9515L61.3849,72.9081L61.398,72.8642L61.41,72.82L61.4209,72.7752L61.4308,72.7301L61.4396,72.6845L61.4472,72.6385L61.4538,72.5921L61.4592,72.5452L61.4634,72.498L61.4664,72.4502L61.4683,72.402L61.4689,72.3533L61.4683,72.3047L61.4664,72.2565L61.4634,72.2088L61.4592,72.1616L61.4538,72.1148L61.4472,72.0684L61.4396,72.0224L61.4308,71.9769L61.421,71.9318L61.41,71.887L61.398,71.8428L61.3849,71.7989L61.3707,71.7555L61.3555,71.7125L61.3393,71.67L61.3221,71.628L61.3038,71.5863L61.2846,71.5452L61.2643,71.5046L61.2431,71.4644L61.221,71.4249L61.1978,71.3858L61.1738,71.3474L61.1488,71.3095L61.1229,71.2722L61.0962,71.2355L61.0685,71.1995L61.04,71.1641L61.0106,71.1294L60.9805,71.0955L60.9495,71.0622L60.9178,71.0297L60.8852,70.9979L60.852,70.9669L60.818,70.9368L60.7834,70.9074L60.748,70.8789L60.712,70.8513L60.6753,70.8245L60.638,70.7986L60.6002,70.7736L60.5617,70.7496L60.5226,70.7264L60.4831,70.7043L60.443,70.6831L60.4023,70.6628L60.3612,70.6435L60.3196,70.6253L60.2775,70.608L60.2351,70.5918L60.192,70.5766L60.1486,70.5625L60.1048,70.5494L60.0604,70.5373L60.0158,70.5264L59.9706,70.5165L59.9251,70.5077L59.8791,70.5001L59.8327,70.4935L59.7858,70.4881L59.7386,70.4839L59.6909,70.4809L59.6427,70.479L59.594,70.4784L59.5454,70.479L59.4972,70.4809L59.4496,70.4839L59.4024,70.4881L59.3555,70.4935L59.3092,70.5L59.2633,70.5077L59.2178,70.5165L59.1726,70.5263L59.128,70.5373L59.0837,70.5493L59.0399,70.5624L58.9964,70.5766L58.9534,70.5918L58.911,70.608L58.8688,70.6253L58.8272,70.6435L58.7862,70.6628L58.7455,70.683L58.7054,70.7043L58.6658,70.7264L58.6267,70.7496L58.5883,70.7736L58.5504,70.7986L58.513,70.8245L58.4764,70.8513L58.4403,70.879L58.405,70.9075L58.3703,70.9369L58.3363,70.967L58.303,70.998L58.2705,71.0298L58.2387,71.0623L58.2077,71.0956L58.1776,71.1296L58.1482,71.1642L58.1197,71.1996L58.092,71.2357L58.0653,71.2723L58.0393,71.3097L58.0144,71.3476L57.9903,71.386L57.9671,71.4251L57.945,71.4647L57.9237,71.5048L57.9035,71.5454L57.8842,71.5866L57.866,71.6282L57.8487,71.6702L57.8325,71.7128L57.8173,71.7557L57.8031,71.7991L57.79,71.843L57.778,71.8873L57.767,71.9319L57.7572,71.9771L57.7484,72.0226L57.7407,72.0685L57.7342,72.1149L57.7288,72.1617L57.7246,72.2089L57.7216,72.2565L57.7197,72.3047L57.7191,72.3533L57.7197,72.402L57.7216,72.4502L57.7246,72.4979L57.7288,72.5451L57.7342,72.592L57.7408,72.6384L57.7484,72.6843L57.7572,72.7299L57.7671,72.7751L57.778,72.8197L57.7901,72.8641L57.8032,72.9079L57.8173,72.9513L57.8325,72.9943L57.8487,73.0369L57.866,73.0789L57.8842,73.1205L57.9035,73.1616L57.9238,73.2023L57.945,73.2424L57.9671,73.282L57.9903,73.321L58.0143,73.3595L58.0393,73.3974L58.0652,73.4346L58.092,73.4713L58.1196,73.5073L58.1482,73.5427L58.1775,73.5773L58.2077,73.6113L58.2386,73.6446L58.2704,73.6771L58.3029,73.7088L58.3362,73.7398L58.3701,73.7699L58.4048,73.7993L58.4402,73.8278L58.4762,73.8554L58.5129,73.8822L58.5502,73.9081L58.588,73.9331L58.6265,73.9571L58.6656,73.9803L58.7052,74.0024L58.7453,74.0236L58.7859,74.0439L58.827,74.0631L58.8686,74.0814L58.9107,74.0986L58.9532,74.1148L58.9962,74.13L59.0396,74.1442L59.0835,74.1573L59.1278,74.1693L59.1725,74.1803L59.2176,74.1901L59.2631,74.1989L59.3091,74.2065L59.3555,74.2131L59.4023,74.2185L59.4495,74.2227L59.4972,74.2257L59.5453,74.2276L59.594,74.2282Z" style="fill:black;"/>
            <path d="M96.6116,58.3992C98.4706,58.3992 99.9866,56.8832 99.9866,55.0242C99.9866,53.1652 98.4706,51.6492 96.6116,51.6492C94.7526,51.6492 93.2366,53.1652 93.2366,55.0242C93.2366,56.8832 94.7526,58.3992 96.6116,58.3992" style="fill:white;"/>
            <path d="M96.5926,59.8991L96.4865,59.8977L96.362,59.893L96.2382,59.8851L96.1151,59.8741L95.9927,59.86L95.8711,59.8429L95.7505,59.8229L95.6309,59.7998L95.5122,59.7739L95.3947,59.7451L95.2782,59.7135L95.1628,59.679L95.0488,59.6419L94.9359,59.602L94.8244,59.5594L94.7143,59.5143L94.6054,59.4666L94.4981,59.4163L94.3922,59.3636L94.2878,59.3084L94.1851,59.2508L94.0838,59.1908L93.9842,59.1285L93.8862,59.064L93.7899,58.9971L93.6954,58.9281L93.6027,58.857L93.5116,58.7836L93.4224,58.7081L93.3351,58.6306L93.2497,58.5511L93.1662,58.4696L93.0847,58.3861L93.0052,58.3007L92.9277,58.2134L92.8522,58.1241L92.7789,58.0331L92.7077,57.9404L92.6386,57.8459L92.5718,57.7496L92.5072,57.6516L92.445,57.552L92.385,57.4508L92.3274,57.3479L92.2722,57.2436L92.2195,57.1377L92.1692,57.0304L92.1215,56.9216L92.0763,56.8114L92.0338,56.6998L91.9939,56.587L91.9568,56.4729L91.9224,56.3577L91.8907,56.2412L91.8619,56.1236L91.836,56.0049L91.8129,55.8852L91.7928,55.7646L91.7758,55.6431L91.7617,55.5208L91.7507,55.3976L91.7428,55.2738L91.7381,55.1493L91.7365,55.0242L91.7381,54.8991L91.7428,54.7746L91.7507,54.6508L91.7617,54.5276L91.7758,54.4053L91.7928,54.2838L91.8129,54.1632L91.836,54.0435L91.8619,53.9248L91.8907,53.8072L91.9224,53.6907L91.9568,53.5754L91.9939,53.4614L92.0338,53.3486L92.0763,53.237L92.1215,53.1268L92.1692,53.018L92.2195,52.9107L92.2722,52.8048L92.3274,52.7005L92.385,52.5976L92.445,52.4964L92.5072,52.3968L92.5718,52.2988L92.6386,52.2026L92.7077,52.1079L92.7789,52.0152L92.8522,51.9243L92.9277,51.835L93.0052,51.7477L93.0847,51.6623L93.1662,51.5788L93.2497,51.4973L93.3351,51.4178L93.4224,51.3403L93.5116,51.2648L93.6026,51.1915L93.6954,51.1203L93.7899,51.0513L93.8862,50.9844L93.9842,50.9198L94.0838,50.8575L94.185,50.7976L94.2878,50.74L94.3923,50.6848L94.4981,50.6321L94.6054,50.5818L94.7143,50.5341L94.8244,50.489L94.9359,50.4464L95.0488,50.4065L95.1628,50.3694L95.2782,50.3349L95.3947,50.3033L95.5122,50.2745L95.6309,50.2485L95.7506,50.2255L95.8711,50.2055L95.9927,50.1884L96.115,50.1743L96.2382,50.1633L96.362,50.1554L96.4865,50.1507L96.6116,50.1491L96.7367,50.1507L96.8612,50.1554L96.985,50.1633L97.1082,50.1743L97.2305,50.1884L97.3521,50.2055L97.4726,50.2255L97.5923,50.2486L97.711,50.2745L97.8286,50.3033L97.9451,50.335L98.0603,50.3694L98.1744,50.4065L98.2873,50.4464L98.3988,50.4889L98.509,50.5341L98.6178,50.5818L98.7251,50.6321L98.831,50.6848L98.9353,50.74L99.0381,50.7976L99.1394,50.8576L99.239,50.9199L99.337,50.9844L99.4332,51.0512L99.5278,51.1203L99.6206,51.1915L99.7116,51.2648L99.8007,51.3403L99.8881,51.4178L99.9735,51.4973L100.057,51.5788L100.138,51.6623L100.218,51.7477L100.296,51.8351L100.371,51.9243L100.444,52.0152L100.516,52.108L100.585,52.2026L100.651,52.2988L100.716,52.3968L100.778,52.4964L100.838,52.5976L100.896,52.7004L100.951,52.8048L101.004,52.9107L101.054,53.0181L101.102,53.1269L101.147,53.2369L101.189,53.3485L101.229,53.4614L101.266,53.5754L101.301,53.6908L101.332,53.8072L101.361,53.9248L101.387,54.0435L101.41,54.1632L101.43,54.2838L101.447,54.4052L101.461,54.5276L101.472,54.6508L101.48,54.7746L101.485,54.8991L101.487,55.0242L101.485,55.1493L101.48,55.2738L101.472,55.3976L101.461,55.5208L101.447,55.6432L101.43,55.7646L101.41,55.8852L101.387,56.0049L101.361,56.1236L101.332,56.2412L101.301,56.3576L101.266,56.4729L101.229,56.587L101.189,56.6999L101.147,56.8115L101.102,56.9216L101.054,57.0303L101.004,57.1377L100.951,57.2436L100.896,57.348L100.838,57.4508L100.778,57.552L100.716,57.6516L100.651,57.7496L100.585,57.8459L100.516,57.9404L100.444,58.0332L100.371,58.1241L100.296,58.2133L100.218,58.3007L100.138,58.3861L100.057,58.4696L99.9735,58.5511L99.8881,58.6306L99.8007,58.7081L99.7116,58.7836L99.6206,58.8569L99.5278,58.9281L99.4332,58.9972L99.337,59.064L99.2391,59.1285L99.1395,59.1908L99.0381,59.2508L98.9353,59.3084L98.831,59.3636L98.7251,59.4163L98.6178,59.4666L98.509,59.5143L98.3988,59.5595L98.2873,59.602L98.1744,59.6419L98.0603,59.679L97.945,59.7135L97.8286,59.7451L97.711,59.7739L97.5923,59.7998L97.4727,59.8229L97.3521,59.8429L97.2305,59.86L97.1081,59.8741L96.985,59.8851L96.8612,59.893L96.7367,59.8977L96.6306,59.8991L96.6116,58.3992L96.5926,59.8991ZM96.6116,56.8991L96.6603,56.8985L96.7085,56.8966L96.7563,56.8936L96.8036,56.8893L96.8504,56.884L96.8968,56.8774L96.9428,56.8698L96.9884,56.861L97.0335,56.8511L97.0783,56.8402L97.1226,56.8282L97.1664,56.8151L97.2098,56.8009L97.2528,56.7857L97.2954,56.7695L97.3375,56.7523L97.379,56.734L97.4202,56.7148L97.4608,56.6945L97.5009,56.6733L97.5405,56.6511L97.5795,56.6281L97.6179,56.604L97.6559,56.579L97.6931,56.5531L97.7298,56.5263L97.7658,56.4987L97.8011,56.4703L97.8358,56.4409L97.8697,56.4108L97.903,56.3798L97.9355,56.3481L97.9672,56.3156L97.9982,56.2823L98.0283,56.2484L98.0576,56.2138L98.0862,56.1784L98.1138,56.1424L98.1405,56.1057L98.1664,56.0684L98.1914,56.0306L98.2154,55.9921L98.2386,55.9531L98.2607,55.9134L98.2819,55.8734L98.3021,55.8328L98.3214,55.7917L98.3396,55.7501L98.3569,55.7079L98.3731,55.6654L98.3883,55.6225L98.4025,55.579L98.4155,55.5352L98.4276,55.4908L98.4386,55.4461L98.4484,55.401L98.4572,55.3554L98.4648,55.3094L98.4714,55.2629L98.4768,55.2161L98.481,55.1689L98.484,55.1211L98.4859,55.0729L98.4865,55.0242L98.4859,54.9755L98.484,54.9273L98.481,54.8795L98.4768,54.8323L98.4714,54.7855L98.4648,54.739L98.4572,54.693L98.4484,54.6474L98.4385,54.6023L98.4276,54.5576L98.4155,54.5132L98.4025,54.4694L98.3883,54.4259L98.3731,54.383L98.3569,54.3405L98.3396,54.2983L98.3214,54.2567L98.3021,54.2156L98.2819,54.175L98.2607,54.135L98.2386,54.0953L98.2154,54.0563L98.1914,54.0178L98.1664,53.98L98.1405,53.9427L98.1138,53.906L98.0862,53.8701L98.0576,53.8346L98.0283,53.8L97.9982,53.7661L97.9672,53.7328L97.9355,53.7003L97.903,53.6686L97.8697,53.6376L97.8358,53.6075L97.8011,53.5781L97.7658,53.5496L97.7298,53.522L97.6931,53.4953L97.6559,53.4694L97.6179,53.4444L97.5795,53.4204L97.5405,53.3973L97.5009,53.3751L97.4608,53.3539L97.4202,53.3336L97.379,53.3144L97.3375,53.2961L97.2954,53.2789L97.2528,53.2627L97.2098,53.2475L97.1664,53.2333L97.1225,53.2202L97.0783,53.2082L97.0335,53.1973L96.9884,53.1874L96.9428,53.1786L96.8968,53.171L96.8504,53.1644L96.8035,53.159L96.7562,53.1548L96.7085,53.1518L96.6603,53.1499L96.6116,53.1493L96.5629,53.1499L96.5147,53.1518L96.4669,53.1548L96.4197,53.159L96.3728,53.1644L96.3264,53.171L96.2804,53.1786L96.2348,53.1874L96.1897,53.1973L96.1449,53.2082L96.1006,53.2202L96.0568,53.2333L96.0134,53.2475L95.9704,53.2627L95.9278,53.2789L95.8857,53.2962L95.8442,53.3144L95.803,53.3336L95.7624,53.3539L95.7223,53.3751L95.6827,53.3972L95.6437,53.4204L95.6052,53.4444L95.5674,53.4694L95.5301,53.4952L95.4934,53.522L95.4574,53.5497L95.4221,53.5781L95.3874,53.6075L95.3535,53.6376L95.3202,53.6686L95.2877,53.7003L95.256,53.7328L95.225,53.7661L95.1949,53.8L95.1656,53.8346L95.1371,53.87L95.1094,53.9061L95.0827,53.9427L95.0568,53.9799L95.0318,54.0178L95.0078,54.0563L94.9846,54.0953L94.9625,54.1349L94.9413,54.175L94.9211,54.2156L94.9018,54.2568L94.8835,54.2984L94.8663,54.3404L94.8501,54.3829L94.8349,54.4259L94.8207,54.4694L94.8076,54.5133L94.7956,54.5576L94.7847,54.6023L94.7748,54.6474L94.766,54.693L94.7584,54.739L94.7518,54.7854L94.7464,54.8323L94.7422,54.8795L94.7392,54.9273L94.7373,54.9755L94.7367,55.0242L94.7373,55.0729L94.7392,55.1211L94.7422,55.1689L94.7464,55.2161L94.7518,55.263L94.7584,55.3094L94.766,55.3554L94.7748,55.401L94.7846,55.4461L94.7956,55.4908L94.8076,55.5351L94.8207,55.579L94.8349,55.6225L94.8501,55.6655L94.8663,55.708L94.8835,55.75L94.9018,55.7916L94.9211,55.8328L94.9413,55.8734L94.9625,55.9135L94.9846,55.9531L95.0078,55.9921L95.0318,56.0306L95.0568,56.0685L95.0827,56.1057L95.1094,56.1423L95.1371,56.1784L95.1656,56.2138L95.1949,56.2484L95.225,56.2823L95.256,56.3156L95.2877,56.3481L95.3202,56.3798L95.3535,56.4108L95.3874,56.4409L95.4221,56.4703L95.4574,56.4987L95.4934,56.5263L95.5301,56.5532L95.5674,56.579L95.6052,56.604L95.6437,56.628L95.6827,56.6511L95.7223,56.6733L95.7624,56.6945L95.803,56.7148L95.8442,56.734L95.8857,56.7522L95.9278,56.7695L95.9704,56.7857L96.0134,56.8009L96.0568,56.8151L96.1006,56.8281L96.1449,56.8402L96.1897,56.8511L96.2348,56.861L96.2804,56.8698L96.3264,56.8774L96.3728,56.884L96.4196,56.8893L96.4669,56.8936L96.5147,56.8966L96.5629,56.8985L96.6116,56.8991Z" style="fill:black;"/>
            <path d="M109.938,87.368C111.796,87.368 113.312,85.852 113.312,83.993C113.312,82.135 111.796,80.619 109.938,80.619C108.079,80.619 106.563,82.135 106.563,83.993C106.563,85.852 108.079,87.368 109.938,87.368" style="fill:white;"/>
            <path d="M109.919,88.8679L109.813,88.8665L109.688,88.8618L109.564,88.8539L109.441,88.8429L109.319,88.8288L109.197,88.8117L109.077,88.7917L108.957,88.7686L108.838,88.7427L108.721,88.7139L108.604,88.6823L108.489,88.6478L108.375,88.6107L108.262,88.5708L108.151,88.5282L108.04,88.4831L107.932,88.4354L107.824,88.3851L107.718,88.3324L107.614,88.2772L107.511,88.2196L107.41,88.1596L107.31,88.0974L107.212,88.0328L107.116,87.966L107.022,87.8969L106.929,87.8257L106.838,87.7523L106.749,87.6769L106.661,87.5994L106.576,87.5199L106.492,87.4384L106.411,87.3549L106.331,87.2694L106.254,87.1821L106.178,87.093L106.105,87.002L106.034,86.9092L105.965,86.8146L105.898,86.7183L105.833,86.6204L105.771,86.5208L105.711,86.4196L105.654,86.3167L105.598,86.2124L105.546,86.1065L105.495,85.9991L105.448,85.8904L105.403,85.7802L105.36,85.6687L105.32,85.5558L105.283,85.4417L105.249,85.3264L105.217,85.21L105.188,85.0923L105.162,84.9737L105.139,84.8541L105.119,84.7335L105.102,84.6119L105.088,84.4896L105.077,84.3665L105.069,84.2426L105.064,84.1181L105.063,83.993L105.064,83.8679L105.069,83.7435L105.077,83.6196L105.088,83.4965L105.102,83.3742L105.119,83.2527L105.139,83.1321L105.162,83.0125L105.188,82.8939L105.217,82.7762L105.249,82.6598L105.283,82.5446L105.32,82.4305L105.36,82.3176L105.403,82.2062L105.448,82.096L105.495,81.9873L105.546,81.8799L105.599,81.774L105.654,81.6698L105.711,81.567L105.771,81.4657L105.834,81.3662L105.898,81.2683L105.965,81.172L106.034,81.0774L106.105,80.9847L106.179,80.8937L106.254,80.8046L106.331,80.7173L106.411,80.6319L106.493,80.5484L106.576,80.4669L106.661,80.3874L106.749,80.3099L106.838,80.2345L106.929,80.1612L107.022,80.0899L107.116,80.0209L107.212,79.9541L107.31,79.8896L107.41,79.8272L107.511,79.7673L107.614,79.7097L107.719,79.6545L107.824,79.6018L107.932,79.5516L108.04,79.5039L108.151,79.4587L108.262,79.4162L108.375,79.3763L108.489,79.3392L108.604,79.3047L108.721,79.2731L108.838,79.2443L108.957,79.2184L109.077,79.1953L109.197,79.1753L109.319,79.1582L109.441,79.1441L109.564,79.1331L109.688,79.1252L109.813,79.1205L109.938,79.1189L110.063,79.1205L110.187,79.1252L110.311,79.1331L110.434,79.1441L110.557,79.1582L110.678,79.1753L110.799,79.1953L110.918,79.2184L111.037,79.2443L111.154,79.2731L111.271,79.3048L111.386,79.3392L111.5,79.3764L111.613,79.4162L111.725,79.4588L111.835,79.504L111.943,79.5517L112.051,79.6019L112.157,79.6546L112.261,79.7098L112.364,79.7674L112.465,79.8274L112.565,79.8896L112.663,79.9542L112.759,80.021L112.853,80.0901L112.946,80.1613L113.037,80.2346L113.126,80.31L113.213,80.3875L113.299,80.467L113.382,80.5485L113.464,80.632L113.543,80.7174L113.621,80.8047L113.696,80.8938L113.77,80.9848L113.841,81.0775L113.91,81.1721L113.977,81.2683L114.041,81.3662L114.103,81.4658L114.163,81.567L114.221,81.6698L114.276,81.7741L114.329,81.88L114.379,81.9874L114.427,82.0961L114.472,82.2062L114.515,82.3176L114.554,82.4305L114.592,82.5446L114.626,82.6599L114.658,82.7763L114.686,82.8938L114.712,83.0125L114.735,83.1322L114.756,83.2527L114.773,83.3741L114.787,83.4965L114.798,83.6197L114.806,83.7435L114.81,83.8679L114.812,83.993L114.81,84.1181L114.806,84.2426L114.798,84.3664L114.787,84.4896L114.773,84.612L114.756,84.7335L114.735,84.854L114.712,84.9737L114.686,85.0924L114.658,85.2099L114.626,85.3263L114.592,85.4417L114.554,85.5558L114.515,85.6687L114.472,85.7802L114.427,85.8903L114.379,85.999L114.329,86.1065L114.276,86.2124L114.221,86.3166L114.163,86.4195L114.103,86.5208L114.041,86.6203L113.977,86.7183L113.91,86.8146L113.841,86.9091L113.77,87.0019L113.696,87.0929L113.621,87.182L113.543,87.2693L113.464,87.3548L113.382,87.4382L113.299,87.5198L113.213,87.5993L113.126,87.6768L113.037,87.7523L112.946,87.8256L112.853,87.8968L112.759,87.9658L112.663,88.0327L112.565,88.0973L112.465,88.1595L112.364,88.2195L112.261,88.2771L112.157,88.3323L112.051,88.385L111.944,88.4353L111.835,88.483L111.725,88.5282L111.613,88.5707L111.5,88.6106L111.386,88.6478L111.271,88.6822L111.154,88.7139L111.037,88.7427L110.918,88.7686L110.799,88.7916L110.678,88.8117L110.557,88.8288L110.434,88.8429L110.311,88.8539L110.187,88.8618L110.063,88.8665L109.957,88.8679L109.938,87.368L109.919,88.8679ZM109.938,85.8679L109.986,85.8673L110.035,85.8654L110.082,85.8624L110.129,85.8582L110.176,85.8528L110.223,85.8463L110.269,85.8386L110.314,85.8298L110.359,85.82L110.404,85.809L110.448,85.797L110.492,85.7839L110.535,85.7698L110.578,85.7546L110.621,85.7384L110.663,85.7211L110.704,85.7029L110.746,85.6836L110.786,85.6634L110.826,85.6422L110.866,85.62L110.905,85.5969L110.943,85.5729L110.981,85.5479L111.018,85.5221L111.055,85.4953L111.091,85.4676L111.126,85.4392L111.161,85.4098L111.195,85.3797L111.228,85.3487L111.261,85.317L111.292,85.2845L111.323,85.2513L111.354,85.2173L111.383,85.1827L111.411,85.1473L111.439,85.1113L111.466,85.0746L111.492,85.0373L111.517,84.9995L111.541,84.9609L111.564,84.922L111.586,84.8824L111.607,84.8422L111.627,84.8016L111.647,84.7606L111.665,84.7189L111.682,84.6768L111.698,84.6342L111.714,84.5913L111.728,84.5479L111.741,84.504L111.753,84.4597L111.764,84.4149L111.774,84.3698L111.782,84.3243L111.79,84.2782L111.797,84.2317L111.802,84.185L111.806,84.1377L111.809,84.0899L111.811,84.0417L111.812,83.993L111.811,83.9444L111.809,83.8962L111.806,83.8485L111.802,83.8013L111.797,83.7546L111.79,83.7082L111.782,83.6621L111.774,83.6166L111.764,83.5716L111.753,83.5269L111.741,83.4825L111.728,83.4388L111.714,83.3954L111.698,83.3525L111.682,83.31L111.665,83.2678L111.647,83.2262L111.627,83.1852L111.607,83.1446L111.586,83.1045L111.564,83.0649L111.541,83.0259L111.517,82.9874L111.492,82.9496L111.466,82.9123L111.439,82.8757L111.411,82.8397L111.383,82.8043L111.354,82.7697L111.323,82.7357L111.293,82.7025L111.261,82.67L111.228,82.6382L111.195,82.6073L111.161,82.5772L111.126,82.5479L111.091,82.5193L111.055,82.4917L111.018,82.4649L110.981,82.4391L110.943,82.4141L110.905,82.3901L110.866,82.367L110.826,82.3448L110.786,82.3236L110.746,82.3034L110.705,82.2841L110.663,82.2659L110.621,82.2486L110.578,82.2324L110.535,82.2172L110.492,82.2031L110.448,82.19L110.404,82.178L110.359,82.167L110.314,82.1572L110.269,82.1484L110.223,82.1407L110.176,82.1342L110.13,82.1288L110.082,82.1246L110.035,82.1216L109.986,82.1197L109.938,82.1191L109.889,82.1197L109.841,82.1216L109.793,82.1246L109.746,82.1288L109.699,82.1342L109.653,82.1408L109.607,82.1484L109.561,82.1572L109.516,82.1671L109.471,82.178L109.427,82.19L109.383,82.2031L109.339,82.2173L109.297,82.2325L109.254,82.2487L109.212,82.2659L109.17,82.2842L109.129,82.3034L109.089,82.3237L109.048,82.3449L109.009,82.3671L108.97,82.3902L108.931,82.4142L108.893,82.4392L108.856,82.4651L108.82,82.4918L108.784,82.5194L108.748,82.5479L108.714,82.5773L108.68,82.6074L108.646,82.6384L108.614,82.6701L108.582,82.7026L108.551,82.7358L108.521,82.7698L108.492,82.8044L108.463,82.8398L108.435,82.8758L108.409,82.9124L108.383,82.9496L108.358,82.9875L108.334,83.026L108.311,83.065L108.289,83.1045L108.267,83.1447L108.247,83.1853L108.228,83.2263L108.21,83.2679L108.192,83.31L108.176,83.3525L108.161,83.3954L108.147,83.4388L108.134,83.4826L108.122,83.527L108.111,83.5715L108.101,83.6166L108.092,83.6622L108.085,83.7082L108.078,83.7545L108.073,83.8013L108.068,83.8486L108.065,83.8962L108.064,83.9444L108.063,83.993L108.064,84.0417L108.065,84.0899L108.068,84.1376L108.073,84.185L108.078,84.2318L108.085,84.2782L108.092,84.3242L108.101,84.3698L108.111,84.415L108.122,84.4596L108.134,84.5039L108.147,84.5479L108.161,84.5913L108.176,84.6342L108.193,84.6768L108.21,84.7189L108.228,84.7605L108.247,84.8015L108.267,84.8421L108.289,84.8823L108.311,84.9219L108.334,84.9609L108.358,84.9994L108.383,85.0373L108.409,85.0745L108.436,85.1111L108.463,85.1472L108.492,85.1825L108.521,85.2172L108.551,85.2512L108.582,85.2844L108.614,85.3169L108.646,85.3486L108.68,85.3796L108.714,85.4098L108.748,85.4391L108.784,85.4675L108.82,85.4951L108.856,85.5219L108.894,85.5478L108.931,85.5728L108.97,85.5968L109.009,85.6199L109.048,85.6421L109.089,85.6633L109.129,85.6836L109.17,85.7028L109.212,85.721L109.254,85.7383L109.297,85.7545L109.34,85.7697L109.383,85.7839L109.427,85.797L109.471,85.809L109.516,85.8199L109.561,85.8298L109.607,85.8386L109.653,85.8462L109.699,85.8528L109.746,85.8582L109.793,85.8624L109.841,85.8654L109.889,85.8673L109.938,85.8679Z" style="fill:black;"/>
            <path d="M72.136,114.646C73.995,114.646 75.511,113.13 75.511,111.271C75.511,109.413 73.995,107.896 72.136,107.896C70.278,107.896 68.761,109.413 68.761,111.271C68.761,113.13 70.278,114.646 72.136,114.646" style="fill:white;"/>
            <path d="M72.1551,116.146L72.136,114.646L72.1169,116.146L72.0109,116.145L71.8865,116.14L71.7626,116.132L71.6395,116.121L71.5172,116.107L71.3956,116.09L71.2751,116.07L71.1555,116.047L71.0368,116.021L70.9193,115.992L70.8029,115.961L70.6875,115.926L70.5734,115.889L70.4606,115.849L70.3492,115.807L70.239,115.761L70.1303,115.714L70.0229,115.663L69.917,115.611L69.8127,115.555L69.7099,115.498L69.6087,115.438L69.509,115.376L69.411,115.311L69.3148,115.244L69.2203,115.175L69.1275,115.104L69.0365,115.031L68.9474,114.955L68.8601,114.878L68.7746,114.798L68.6911,114.717L68.6096,114.633L68.5301,114.548L68.4525,114.461L68.377,114.371L68.3038,114.28L68.2325,114.188L68.1634,114.093L68.0966,113.997L68.032,113.899L67.9697,113.799L67.9097,113.698L67.8521,113.595L67.7969,113.491L67.7441,113.385L67.6939,113.278L67.6461,113.169L67.601,113.059L67.5584,112.947L67.5185,112.834L67.4813,112.72L67.4469,112.605L67.4152,112.488L67.3864,112.371L67.3604,112.252L67.3374,112.133L67.3173,112.012L67.3002,111.89L67.2861,111.768L67.2751,111.645L67.2672,111.521L67.2625,111.396L67.2609,111.271L67.2625,111.146L67.2672,111.022L67.2751,110.898L67.2861,110.775L67.3002,110.652L67.3173,110.531L67.3374,110.41L67.3605,110.291L67.3864,110.172L67.4152,110.054L67.4469,109.938L67.4814,109.823L67.5185,109.709L67.5584,109.596L67.601,109.484L67.6462,109.374L67.6939,109.265L67.7442,109.158L67.7969,109.052L67.8521,108.948L67.9097,108.845L67.9697,108.744L68.032,108.644L68.0966,108.546L68.1634,108.45L68.2324,108.355L68.3037,108.263L68.377,108.172L68.4524,108.083L68.53,107.995L68.6095,107.91L68.691,107.826L68.7745,107.745L68.8599,107.665L68.9472,107.588L69.0364,107.512L69.1273,107.439L69.2201,107.368L69.3147,107.299L69.4108,107.232L69.5088,107.167L69.6085,107.105L69.7097,107.045L69.8124,106.987L69.9167,106.932L70.0227,106.879L70.13,106.829L70.2388,106.781L70.3489,106.736L70.4605,106.694L70.5733,106.654L70.6873,106.617L70.8026,106.582L70.9192,106.551L71.0367,106.522L71.1553,106.496L71.2749,106.473L71.3955,106.453L71.5171,106.436L71.6394,106.421L71.7626,106.41L71.8864,106.403L72.0109,106.398L72.136,106.396L72.2611,106.398L72.3857,106.403L72.5095,106.41L72.6327,106.421L72.755,106.435L72.8766,106.453L72.9972,106.473L73.1169,106.496L73.2355,106.522L73.3531,106.55L73.4697,106.582L73.585,106.617L73.699,106.654L73.8118,106.694L73.9234,106.736L74.0336,106.781L74.1424,106.829L74.2497,106.879L74.3557,106.932L74.46,106.987L74.5628,107.045L74.664,107.105L74.7636,107.167L74.8616,107.232L74.9578,107.299L75.0524,107.368L75.1452,107.439L75.2361,107.512L75.3253,107.588L75.4126,107.665L75.498,107.745L75.5815,107.826L75.663,107.91L75.7425,107.995L75.82,108.083L75.8955,108.172L75.9687,108.263L76.04,108.356L76.109,108.45L76.1758,108.546L76.2404,108.644L76.3026,108.744L76.3626,108.845L76.4202,108.948L76.4754,109.052L76.5281,109.158L76.5784,109.266L76.6261,109.374L76.6712,109.484L76.7137,109.596L76.7536,109.709L76.7908,109.823L76.8252,109.938L76.8569,110.055L76.8857,110.172L76.9116,110.291L76.9347,110.41L76.9547,110.531L76.9718,110.653L76.9859,110.775L76.9969,110.898L77.0048,111.022L77.0095,111.146L77.0111,111.271L77.0095,111.396L77.0048,111.521L76.9969,111.645L76.9859,111.768L76.9718,111.89L76.9547,112.012L76.9347,112.132L76.9116,112.252L76.8857,112.371L76.8569,112.488L76.8252,112.605L76.7908,112.72L76.7536,112.834L76.7138,112.947L76.6713,113.058L76.6261,113.169L76.5784,113.277L76.5281,113.385L76.4754,113.491L76.4202,113.595L76.3626,113.698L76.3026,113.799L76.2404,113.899L76.1758,113.997L76.109,114.093L76.0399,114.188L75.9687,114.28L75.8954,114.371L75.8199,114.46L75.7424,114.548L75.6628,114.633L75.5814,114.717L75.4979,114.798L75.4124,114.878L75.3251,114.955L75.236,115.031L75.145,115.104L75.0522,115.175L74.9576,115.244L74.8614,115.311L74.7634,115.376L74.6638,115.438L74.5626,115.498L74.4597,115.556L74.3554,115.611L74.2496,115.663L74.1421,115.714L74.0333,115.761L73.9232,115.807L73.8117,115.849L73.6989,115.889L73.5848,115.926L73.4694,115.961L73.3529,115.992L73.2354,116.021L73.1167,116.047L72.997,116.07L72.8765,116.09L72.7549,116.107L72.6326,116.121L72.5095,116.132L72.3856,116.14L72.2611,116.145L72.1551,116.146ZM72.136,113.146L72.1847,113.146L72.2329,113.144L72.2806,113.141L72.3279,113.136L72.3748,113.131L72.4211,113.125L72.4672,113.117L72.5128,113.108L72.5579,113.098L72.6027,113.087L72.647,113.075L72.6908,113.062L72.7342,113.048L72.7772,113.033L72.8198,113.017L72.8619,112.999L72.9035,112.981L72.9445,112.962L72.9852,112.942L73.0253,112.92L73.0649,112.898L73.1039,112.875L73.1424,112.851L73.1802,112.826L73.2175,112.8L73.2542,112.773L73.2901,112.746L73.3255,112.717L73.3602,112.688L73.3942,112.658L73.4273,112.627L73.4599,112.595L73.4917,112.563L73.5226,112.529L73.5527,112.496L73.582,112.461L73.6106,112.425L73.6382,112.389L73.6649,112.353L73.6908,112.316L73.7158,112.278L73.7398,112.239L73.763,112.2L73.7851,112.161L73.8063,112.121L73.8266,112.08L73.8458,112.039L73.8641,111.997L73.8813,111.955L73.8975,111.913L73.9127,111.87L73.9269,111.826L73.94,111.782L73.952,111.738L73.9629,111.693L73.9728,111.648L73.9816,111.603L73.9892,111.556L73.9958,111.51L74.0012,111.463L74.0054,111.416L74.0084,111.368L74.0103,111.32L74.0109,111.271L74.0103,111.223L74.0084,111.175L74.0054,111.127L74.0012,111.08L73.9958,111.033L73.9893,110.986L73.9816,110.94L73.9728,110.895L73.963,110.85L73.952,110.805L73.94,110.761L73.9269,110.717L73.9127,110.674L73.8976,110.631L73.8813,110.588L73.8641,110.546L73.8458,110.504L73.8266,110.463L73.8063,110.423L73.7851,110.382L73.763,110.343L73.7398,110.304L73.7158,110.265L73.6908,110.227L73.6649,110.19L73.6381,110.154L73.6105,110.118L73.582,110.082L73.5526,110.047L73.5225,110.013L73.4915,109.98L73.4598,109.948L73.4273,109.916L73.394,109.885L73.3601,109.855L73.3254,109.825L73.2899,109.797L73.254,109.769L73.2174,109.743L73.18,109.717L73.1422,109.692L73.1037,109.668L73.0646,109.644L73.025,109.622L72.9849,109.601L72.9444,109.581L72.9032,109.562L72.8616,109.543L72.8195,109.526L72.7771,109.51L72.7341,109.495L72.6905,109.48L72.6467,109.467L72.6025,109.455L72.5578,109.444L72.5126,109.434L72.4671,109.426L72.4211,109.418L72.3747,109.412L72.3278,109.406L72.2806,109.402L72.2328,109.399L72.1847,109.397L72.136,109.396L72.0874,109.397L72.0393,109.399L71.9916,109.402L71.9444,109.406L71.8975,109.412L71.8512,109.418L71.8053,109.426L71.7598,109.434L71.7146,109.444L71.6699,109.455L71.6257,109.467L71.5819,109.48L71.5384,109.495L71.4954,109.51L71.453,109.526L71.4108,109.543L71.3692,109.562L71.3281,109.581L71.2876,109.601L71.2475,109.622L71.2078,109.644L71.1687,109.668L71.1303,109.692L71.0924,109.717L71.055,109.743L71.0184,109.769L70.9824,109.797L70.947,109.826L70.9123,109.855L70.8783,109.885L70.845,109.916L70.8125,109.948L70.7807,109.98L70.7497,110.014L70.7196,110.048L70.6902,110.082L70.6616,110.118L70.634,110.154L70.6073,110.19L70.5813,110.228L70.5564,110.266L70.5323,110.304L70.5091,110.343L70.487,110.383L70.4657,110.423L70.4455,110.463L70.4262,110.505L70.408,110.546L70.3907,110.588L70.3745,110.631L70.3593,110.674L70.3451,110.717L70.332,110.761L70.32,110.805L70.3091,110.85L70.2992,110.895L70.2904,110.941L70.2828,110.986L70.2762,111.033L70.2708,111.08L70.2666,111.127L70.2636,111.175L70.2617,111.223L70.2611,111.271L70.2617,111.32L70.2636,111.368L70.2666,111.416L70.2708,111.463L70.2762,111.51L70.2828,111.556L70.2904,111.602L70.2992,111.648L70.3091,111.693L70.32,111.738L70.332,111.782L70.3452,111.826L70.3593,111.869L70.3745,111.912L70.3907,111.955L70.408,111.997L70.4263,112.039L70.4455,112.08L70.4657,112.12L70.487,112.16L70.5091,112.2L70.5323,112.239L70.5564,112.277L70.5813,112.315L70.6072,112.353L70.634,112.389L70.6616,112.425L70.6902,112.461L70.7195,112.495L70.7496,112.529L70.7806,112.563L70.8124,112.595L70.8449,112.627L70.8781,112.658L70.9121,112.688L70.9468,112.717L70.9822,112.746L71.0182,112.773L71.0549,112.8L71.0922,112.826L71.13,112.851L71.1685,112.875L71.2076,112.898L71.2472,112.92L71.2873,112.942L71.3279,112.962L71.369,112.981L71.4106,112.999L71.4527,113.017L71.4953,113.033L71.5383,113.048L71.5816,113.062L71.6255,113.075L71.6697,113.087L71.7145,113.098L71.7596,113.108L71.8051,113.117L71.8512,113.125L71.8975,113.131L71.9443,113.136L71.9916,113.141L72.0392,113.144L72.0874,113.146L72.136,113.146Z" style="fill:black;"/>
            <path d="M34.4221,98.9354L77.8181,76.7944L102.702,128.503L122.864,95.9944L160.282,156.184" style="fill:none;stroke-width:3px;stroke:black;"/>
            <path d="M102.702,131.879C104.56,131.879 106.077,130.363 106.077,128.504C106.077,126.645 104.56,125.129 102.702,125.129C100.843,125.129 99.3274,126.645 99.3274,128.504C99.3274,130.363 100.843,131.879 102.702,131.879" style="fill:white;"/>
            <path d="M102.683,133.379L102.577,133.377L102.453,133.372L102.329,133.365L102.206,133.354L102.083,133.34L101.962,133.322L101.841,133.302L101.722,133.279L101.603,133.253L101.485,133.225L101.369,133.193L101.254,133.159L101.14,133.121L101.027,133.081L100.915,133.039L100.805,132.994L100.696,132.946L100.589,132.896L100.483,132.843L100.379,132.788L100.276,132.73L100.175,132.67L100.075,132.608L99.977,132.543L99.8808,132.477L99.7862,132.408L99.6934,132.336L99.6024,132.263L99.5132,132.188L99.426,132.11L99.3406,132.031L99.257,131.949L99.1755,131.866L99.096,131.78L99.0185,131.693L98.943,131.604L98.8696,131.513L98.7985,131.42L98.7295,131.325L98.6626,131.229L98.598,131.131L98.5358,131.032L98.4758,130.93L98.4182,130.827L98.363,130.723L98.3103,130.617L98.26,130.51L98.2123,130.401L98.1672,130.291L98.1246,130.179L98.0847,130.066L98.0476,129.952L98.0132,129.837L97.9815,129.721L97.9527,129.603L97.9267,129.484L97.9037,129.365L97.8836,129.244L97.8666,129.123L97.8525,129L97.8415,128.877L97.8336,128.753L97.8289,128.629L97.8273,128.504L97.8289,128.379L97.8336,128.254L97.8415,128.13L97.8525,128.007L97.8666,127.885L97.8836,127.763L97.9037,127.643L97.9268,127.523L97.9527,127.404L97.9815,127.287L98.0132,127.17L98.0476,127.055L98.0847,126.941L98.1246,126.828L98.1672,126.717L98.2123,126.606L98.26,126.497L98.3103,126.39L98.363,126.284L98.4182,126.18L98.4758,126.077L98.5358,125.976L98.598,125.876L98.6626,125.778L98.7294,125.682L98.7985,125.587L98.8697,125.495L98.943,125.404L99.0185,125.315L99.096,125.227L99.1755,125.142L99.257,125.058L99.3405,124.977L99.426,124.897L99.5133,124.82L99.6024,124.744L99.6934,124.671L99.7862,124.6L99.8808,124.531L99.977,124.464L100.075,124.399L100.175,124.337L100.276,124.277L100.379,124.22L100.483,124.164L100.589,124.112L100.696,124.061L100.805,124.014L100.915,123.968L101.027,123.926L101.139,123.886L101.254,123.849L101.369,123.814L101.486,123.783L101.603,123.754L101.722,123.728L101.841,123.705L101.962,123.685L102.083,123.668L102.206,123.654L102.329,123.643L102.453,123.635L102.577,123.63L102.702,123.629L102.827,123.63L102.952,123.635L103.076,123.643L103.199,123.654L103.321,123.668L103.443,123.685L103.563,123.705L103.683,123.728L103.802,123.754L103.919,123.783L104.036,123.814L104.151,123.849L104.265,123.886L104.378,123.926L104.489,123.968L104.599,124.014L104.708,124.061L104.816,124.112L104.921,124.164L105.026,124.22L105.129,124.277L105.23,124.337L105.329,124.399L105.427,124.464L105.524,124.531L105.618,124.6L105.711,124.671L105.802,124.744L105.891,124.82L105.978,124.897L106.064,124.977L106.147,125.058L106.229,125.142L106.308,125.227L106.386,125.314L106.461,125.404L106.535,125.495L106.606,125.587L106.675,125.682L106.742,125.778L106.806,125.876L106.869,125.976L106.929,126.077L106.986,126.18L107.041,126.284L107.094,126.39L107.145,126.497L107.192,126.606L107.237,126.716L107.28,126.828L107.32,126.941L107.357,127.055L107.392,127.17L107.423,127.287L107.452,127.404L107.478,127.523L107.501,127.642L107.521,127.763L107.538,127.885L107.552,128.007L107.563,128.13L107.571,128.254L107.576,128.379L107.578,128.504L107.576,128.629L107.571,128.753L107.563,128.877L107.552,129L107.538,129.123L107.521,129.244L107.501,129.365L107.478,129.485L107.452,129.603L107.423,129.721L107.392,129.837L107.357,129.953L107.32,130.067L107.28,130.18L107.237,130.291L107.192,130.401L107.145,130.51L107.094,130.617L107.041,130.723L106.986,130.828L106.929,130.931L106.869,131.032L106.806,131.131L106.742,131.229L106.675,131.326L106.606,131.42L106.535,131.513L106.461,131.604L106.386,131.693L106.308,131.78L106.229,131.866L106.147,131.949L106.064,132.031L105.978,132.11L105.891,132.188L105.802,132.263L105.711,132.337L105.618,132.408L105.524,132.477L105.427,132.544L105.329,132.608L105.23,132.67L105.129,132.73L105.026,132.788L104.921,132.843L104.815,132.896L104.708,132.946L104.599,132.994L104.489,133.039L104.378,133.081L104.265,133.121L104.151,133.159L104.036,133.193L103.919,133.225L103.802,133.253L103.683,133.279L103.563,133.302L103.443,133.322L103.321,133.34L103.199,133.354L103.076,133.365L102.952,133.372L102.827,133.377L102.721,133.379L102.702,131.879L102.683,133.379ZM102.702,130.379L102.751,130.378L102.799,130.376L102.847,130.373L102.894,130.369L102.941,130.363L102.987,130.357L103.033,130.349L103.079,130.341L103.124,130.331L103.169,130.32L103.213,130.308L103.257,130.295L103.3,130.28L103.343,130.265L103.386,130.249L103.428,130.232L103.469,130.214L103.511,130.194L103.551,130.174L103.591,130.153L103.631,130.131L103.67,130.108L103.708,130.083L103.746,130.058L103.783,130.033L103.82,130.006L103.856,129.978L103.892,129.95L103.926,129.92L103.96,129.89L103.994,129.859L104.026,129.827L104.058,129.795L104.089,129.762L104.119,129.728L104.148,129.693L104.177,129.658L104.204,129.622L104.231,129.585L104.257,129.548L104.282,129.51L104.306,129.471L104.329,129.432L104.351,129.393L104.373,129.353L104.393,129.312L104.412,129.271L104.43,129.229L104.448,129.187L104.464,129.145L104.479,129.102L104.493,129.058L104.506,129.014L104.518,128.97L104.529,128.926L104.539,128.88L104.548,128.835L104.556,128.789L104.562,128.742L104.568,128.696L104.572,128.648L104.575,128.601L104.577,128.552L104.577,128.504L104.577,128.455L104.575,128.407L104.572,128.359L104.568,128.312L104.562,128.265L104.556,128.219L104.548,128.173L104.539,128.127L104.529,128.082L104.518,128.037L104.506,127.993L104.493,127.949L104.479,127.906L104.464,127.863L104.448,127.82L104.43,127.778L104.412,127.736L104.393,127.695L104.373,127.655L104.351,127.615L104.329,127.575L104.306,127.536L104.282,127.498L104.257,127.46L104.231,127.422L104.204,127.386L104.177,127.35L104.148,127.314L104.119,127.28L104.089,127.246L104.058,127.212L104.026,127.18L103.993,127.148L103.96,127.117L103.926,127.087L103.892,127.058L103.856,127.029L103.82,127.002L103.783,126.975L103.746,126.949L103.708,126.924L103.67,126.9L103.631,126.877L103.591,126.855L103.551,126.833L103.51,126.813L103.469,126.794L103.428,126.776L103.386,126.758L103.343,126.742L103.3,126.727L103.257,126.713L103.213,126.7L103.169,126.688L103.124,126.677L103.079,126.667L103.033,126.658L102.987,126.65L102.941,126.644L102.894,126.639L102.847,126.634L102.799,126.631L102.751,126.629L102.702,126.629L102.654,126.629L102.605,126.631L102.558,126.634L102.51,126.639L102.464,126.644L102.417,126.65L102.371,126.658L102.326,126.667L102.28,126.677L102.236,126.688L102.191,126.7L102.148,126.713L102.104,126.727L102.061,126.742L102.019,126.758L101.977,126.776L101.935,126.794L101.894,126.813L101.853,126.833L101.813,126.855L101.774,126.877L101.734,126.9L101.696,126.924L101.658,126.949L101.621,126.975L101.584,127.002L101.548,127.029L101.513,127.058L101.478,127.087L101.444,127.117L101.411,127.148L101.379,127.18L101.347,127.212L101.316,127.246L101.286,127.28L101.256,127.314L101.228,127.35L101.2,127.386L101.173,127.422L101.148,127.459L101.123,127.497L101.099,127.536L101.075,127.575L101.053,127.614L101.032,127.654L101.012,127.695L100.993,127.736L100.974,127.778L100.957,127.82L100.941,127.862L100.926,127.905L100.912,127.949L100.898,127.993L100.886,128.037L100.875,128.082L100.866,128.127L100.857,128.172L100.849,128.218L100.843,128.265L100.837,128.312L100.833,128.359L100.83,128.407L100.828,128.455L100.828,128.504L100.828,128.552L100.83,128.601L100.833,128.648L100.837,128.696L100.843,128.743L100.849,128.789L100.857,128.835L100.866,128.881L100.875,128.926L100.886,128.97L100.898,129.015L100.912,129.059L100.926,129.102L100.941,129.145L100.957,129.187L100.974,129.23L100.993,129.271L101.012,129.312L101.032,129.353L101.053,129.393L101.075,129.433L101.099,129.472L101.123,129.51L101.148,129.548L101.173,129.585L101.2,129.622L101.228,129.658L101.256,129.693L101.286,129.728L101.316,129.762L101.347,129.795L101.379,129.828L101.411,129.859L101.444,129.89L101.478,129.92L101.513,129.95L101.548,129.978L101.584,130.006L101.621,130.033L101.658,130.059L101.696,130.083L101.735,130.108L101.774,130.131L101.813,130.153L101.853,130.174L101.894,130.194L101.935,130.213L101.977,130.232L102.019,130.249L102.061,130.265L102.104,130.28L102.148,130.295L102.191,130.308L102.236,130.32L102.28,130.331L102.326,130.341L102.371,130.349L102.417,130.357L102.464,130.363L102.51,130.369L102.558,130.373L102.606,130.376L102.654,130.378L102.702,130.379Z" style="fill:black;"/>
            <path d="M122.864,99.368C124.722,99.368 126.238,97.852 126.238,95.993C126.238,94.135 124.722,92.618 122.864,92.618C121.005,92.618 119.489,94.135 119.489,95.993C119.489,97.852 121.005,99.368 122.864,99.368" style="fill:white;"/>
            <path d="M122.846,100.868L122.739,100.867L122.615,100.862L122.491,100.854L122.368,100.843L122.246,100.829L122.124,100.812L122.003,100.792L121.884,100.769L121.765,100.743L121.648,100.714L121.531,100.682L121.416,100.648L121.302,100.611L121.189,100.571L121.077,100.528L120.967,100.483L120.858,100.435L120.751,100.385L120.645,100.332L120.541,100.277L120.438,100.22L120.337,100.16L120.237,100.097L120.139,100.033L120.043,99.9659L119.948,99.8969L119.856,99.8258L119.764,99.7523L119.675,99.6769L119.588,99.5995L119.503,99.5199L119.419,99.4384L119.338,99.3548L119.258,99.2694L119.181,99.1822L119.105,99.093L119.032,99.0019L118.961,98.9092L118.892,98.8147L118.825,98.7183L118.76,98.6204L118.698,98.5209L118.638,98.4196L118.58,98.3167L118.525,98.2125L118.472,98.1065L118.422,97.9991L118.374,97.8904L118.329,97.7802L118.287,97.6686L118.247,97.5558L118.21,97.4417L118.175,97.3265L118.144,97.21L118.115,97.0924L118.089,96.9737L118.066,96.854L118.046,96.7334L118.029,96.6119L118.015,96.4896L118.004,96.3665L117.996,96.2426L117.991,96.118L117.989,95.993L117.991,95.868L117.996,95.7435L118.004,95.6196L118.015,95.4965L118.029,95.3742L118.046,95.2527L118.066,95.1321L118.089,95.0125L118.115,94.8938L118.144,94.7763L118.175,94.6598L118.21,94.5445L118.247,94.4305L118.287,94.3177L118.329,94.2062L118.374,94.0959L118.422,93.9873L118.472,93.8799L118.525,93.774L118.58,93.6697L118.638,93.5668L118.698,93.4656L118.76,93.366L118.825,93.2682L118.891,93.1718L118.961,93.0773L119.032,92.9845L119.105,92.8935L119.181,92.8043L119.258,92.7171L119.337,92.6316L119.419,92.5481L119.502,92.4666L119.588,92.387L119.675,92.3096L119.764,92.2341L119.855,92.1607L119.948,92.0895L120.043,92.0205L120.139,91.9536L120.237,91.889L120.336,91.8267L120.438,91.7667L120.541,91.7091L120.645,91.6539L120.751,91.6011L120.858,91.5509L120.967,91.5031L121.077,91.458L121.189,91.4154L121.301,91.3755L121.415,91.3383L121.531,91.3039L121.647,91.2722L121.765,91.2434L121.884,91.2174L122.003,91.1944L122.124,91.1743L122.245,91.1572L122.368,91.1431L122.491,91.1321L122.615,91.1242L122.739,91.1195L122.865,91.1179L122.99,91.1195L123.114,91.1242L123.238,91.1321L123.361,91.1431L123.483,91.1572L123.605,91.1743L123.726,91.1944L123.845,91.2175L123.964,91.2434L124.081,91.2723L124.198,91.3039L124.313,91.3384L124.427,91.3756L124.54,91.4155L124.652,91.458L124.762,91.5032L124.87,91.551L124.978,91.6012L125.084,91.654L125.188,91.7092L125.291,91.7668L125.392,91.8269L125.492,91.8891L125.589,91.9537L125.686,92.0205L125.78,92.0896L125.873,92.1608L125.964,92.2342L126.053,92.3096L126.14,92.3871L126.226,92.4667L126.309,92.5482L126.391,92.6317L126.47,92.7172L126.548,92.8045L126.623,92.8936L126.696,92.9846L126.768,93.0773L126.837,93.1719L126.903,93.2682L126.968,93.3661L127.03,93.4657L127.09,93.5669L127.148,93.6698L127.203,93.7741L127.256,93.8799L127.306,93.9873L127.354,94.0961L127.399,94.2062L127.441,94.3177L127.481,94.4305L127.518,94.5446L127.553,94.6599L127.584,94.7763L127.613,94.8939L127.639,95.0125L127.662,95.132L127.682,95.2527L127.699,95.3742L127.713,95.4965L127.724,95.6197L127.732,95.7435L127.737,95.8679L127.739,95.993L127.737,96.1181L127.732,96.2426L127.724,96.3664L127.713,96.4896L127.699,96.6119L127.682,96.7334L127.662,96.8541L127.639,96.9737L127.613,97.0923L127.584,97.21L127.553,97.3264L127.518,97.4417L127.481,97.5558L127.441,97.6687L127.399,97.7802L127.354,97.8902L127.306,97.9991L127.256,98.1065L127.203,98.2123L127.148,98.3167L127.09,98.4195L127.03,98.5208L126.968,98.6203L126.903,98.7183L126.837,98.8146L126.768,98.9091L126.696,99.0019L126.623,99.0929L126.548,99.182L126.47,99.2693L126.391,99.3548L126.309,99.4383L126.226,99.5198L126.14,99.5993L126.053,99.6768L125.964,99.7522L125.873,99.8256L125.78,99.8968L125.686,99.9659L125.589,100.033L125.491,100.097L125.392,100.159L125.291,100.219L125.188,100.277L125.083,100.332L124.978,100.385L124.87,100.435L124.762,100.483L124.651,100.528L124.54,100.571L124.427,100.611L124.313,100.648L124.198,100.682L124.081,100.714L123.964,100.743L123.845,100.769L123.725,100.792L123.605,100.812L123.483,100.829L123.361,100.843L123.238,100.854L123.114,100.862L122.989,100.867L122.883,100.868L122.865,99.368L122.846,100.868ZM122.864,97.8679L122.913,97.8673L122.961,97.8654L123.009,97.8624L123.056,97.8582L123.103,97.8528L123.149,97.8463L123.195,97.8386L123.241,97.8298L123.286,97.82L123.331,97.809L123.375,97.797L123.419,97.7839L123.462,97.7698L123.505,97.7546L123.548,97.7384L123.59,97.7211L123.631,97.7029L123.672,97.6836L123.713,97.6634L123.753,97.6422L123.792,97.62L123.831,97.597L123.87,97.5729L123.908,97.5479L123.945,97.522L123.982,97.4953L124.018,97.4676L124.053,97.4392L124.088,97.4099L124.122,97.3796L124.155,97.3487L124.187,97.317L124.219,97.2845L124.25,97.2513L124.28,97.2173L124.31,97.1826L124.338,97.1473L124.366,97.1112L124.392,97.0746L124.418,97.0374L124.443,96.9995L124.467,96.9609L124.49,96.9219L124.513,96.8824L124.534,96.8423L124.554,96.8016L124.573,96.7605L124.592,96.719L124.609,96.6768L124.625,96.6342L124.64,96.5913L124.654,96.5479L124.667,96.504L124.68,96.4596L124.69,96.415L124.7,96.3698L124.709,96.3241L124.717,96.2782L124.723,96.2318L124.729,96.1849L124.733,96.1377L124.736,96.0899L124.738,96.0417L124.738,95.993L124.738,95.9444L124.736,95.8962L124.733,95.8485L124.729,95.8013L124.723,95.7545L124.717,95.7081L124.709,95.6622L124.7,95.6166L124.69,95.5714L124.68,95.5268L124.667,95.4825L124.654,95.4386L124.64,95.3952L124.625,95.3522L124.609,95.3097L124.592,95.2675L124.573,95.226L124.554,95.1849L124.534,95.1442L124.513,95.104L124.49,95.0645L124.467,95.0255L124.443,94.987L124.418,94.949L124.392,94.9118L124.366,94.8752L124.338,94.8391L124.309,94.8037L124.28,94.769L124.25,94.735L124.219,94.7018L124.187,94.6693L124.155,94.6375L124.122,94.6066L124.088,94.5764L124.053,94.547L124.018,94.5185L123.982,94.4909L123.945,94.4641L123.908,94.4383L123.87,94.4132L123.831,94.3891L123.792,94.366L123.753,94.3439L123.713,94.3227L123.672,94.3024L123.631,94.2832L123.589,94.2649L123.547,94.2477L123.505,94.2315L123.462,94.2163L123.418,94.2021L123.375,94.189L123.33,94.177L123.286,94.166L123.241,94.1562L123.195,94.1474L123.149,94.1398L123.103,94.1332L123.056,94.1278L123.009,94.1236L122.961,94.1206L122.913,94.1187L122.864,94.1181L122.816,94.1187L122.768,94.1206L122.72,94.1236L122.673,94.1278L122.626,94.1332L122.579,94.1398L122.533,94.1474L122.488,94.1562L122.443,94.1661L122.398,94.177L122.354,94.1891L122.31,94.2021L122.266,94.2163L122.223,94.2315L122.181,94.2477L122.139,94.265L122.097,94.2833L122.056,94.3025L122.016,94.3227L121.975,94.344L121.936,94.3661L121.897,94.3892L121.858,94.4133L121.82,94.4383L121.783,94.4642L121.747,94.491L121.71,94.5187L121.675,94.5471L121.64,94.5765L121.606,94.6067L121.573,94.6376L121.541,94.6694L121.509,94.7019L121.478,94.7351L121.448,94.7692L121.419,94.8038L121.39,94.8391L121.362,94.8752L121.336,94.9119L121.31,94.9491L121.285,94.9871L121.261,95.0256L121.238,95.0646L121.215,95.1041L121.194,95.1444L121.174,95.1849L121.155,95.226L121.136,95.2677L121.119,95.3097L121.103,95.3522L121.088,95.3952L121.074,95.4387L121.061,95.4825L121.048,95.5268L121.038,95.5715L121.028,95.6166L121.019,95.6621L121.011,95.7081L121.005,95.7545L120.999,95.8013L120.995,95.8486L120.992,95.8962L120.99,95.9443L120.99,95.993L120.99,96.0418L120.992,96.0899L120.995,96.1376L120.999,96.1849L121.005,96.2318L121.011,96.2782L121.019,96.3242L121.028,96.3698L121.038,96.4149L121.049,96.4596L121.061,96.5039L121.074,96.5478L121.088,96.5913L121.103,96.6343L121.119,96.6768L121.136,96.7188L121.155,96.7605L121.174,96.8016L121.194,96.8421L121.215,96.8823L121.238,96.9219L121.261,96.9609L121.285,96.9994L121.31,97.0373L121.336,97.0745L121.362,97.1112L121.39,97.1472L121.418,97.1825L121.448,97.2171L121.478,97.2512L121.509,97.2844L121.541,97.3169L121.573,97.3486L121.606,97.3795L121.64,97.4098L121.675,97.4391L121.71,97.4675L121.746,97.4952L121.783,97.522L121.82,97.5478L121.858,97.5728L121.897,97.5969L121.936,97.62L121.975,97.6421L122.015,97.6634L122.056,97.6835L122.097,97.7028L122.139,97.7211L122.181,97.7383L122.223,97.7545L122.266,97.7697L122.31,97.7838L122.354,97.797L122.398,97.809L122.443,97.8199L122.488,97.8298L122.533,97.8386L122.579,97.8462L122.626,97.8528L122.673,97.8582L122.72,97.8624L122.768,97.8654L122.816,97.8673L122.864,97.8679Z" style="fill:black;"/>
            <path d="M77.8176,80.1697C79.6766,80.1697 81.1926,78.6527 81.1926,76.7947C81.1926,74.9357 79.6766,73.4197 77.8176,73.4197C75.9586,73.4197 74.4426,74.9357 74.4426,76.7947C74.4426,78.6527 75.9586,80.1697 77.8176,80.1697" style="fill:white;"/>
            <path d="M77.7985,81.6696L77.6925,81.6682L77.568,81.6635L77.4441,81.6556L77.3209,81.6446L77.1985,81.6305L77.077,81.6134L76.9564,81.5933L76.8367,81.5703L76.718,81.5443L76.6004,81.5155L76.484,81.4838L76.3687,81.4494L76.2545,81.4122L76.1417,81.3723L76.0302,81.3297L75.92,81.2846L75.8112,81.2368L75.7038,81.1865L75.598,81.1338L75.4936,81.0786L75.3908,81.0209L75.2896,80.961L75.19,80.8987L75.092,80.8341L74.9958,80.7673L74.9012,80.6982L74.8084,80.6269L74.7175,80.5536L74.6283,80.4782L74.541,80.4006L74.4556,80.3211L74.3721,80.2396L74.2906,80.1561L74.2111,80.0707L74.1336,79.9833L74.0582,79.8942L73.9848,79.8032L73.9136,79.7104L73.8446,79.6159L73.7778,79.5196L73.7132,79.4216L73.6509,79.322L73.591,79.2208L73.5334,79.118L73.4782,79.0136L73.4255,78.9078L73.3752,78.8005L73.3275,78.6917L73.2824,78.5815L73.2399,78.4701L73.2,78.3572L73.1628,78.2432L73.1284,78.1279L73.0967,78.0114L73.0679,77.8939L73.042,77.7752L73.0189,77.6556L72.9989,77.535L72.9818,77.4135L72.9677,77.2912L72.9567,77.168L72.9488,77.0442L72.9441,76.9198L72.9425,76.7947L72.9441,76.6696L72.9488,76.5451L72.9567,76.4213L72.9677,76.2981L72.9818,76.1758L72.9989,76.0542L73.0189,75.9337L73.042,75.814L73.0679,75.6953L73.0967,75.5778L73.1284,75.4613L73.1628,75.3459L73.2,75.2318L73.2398,75.119L73.2823,75.0075L73.3275,74.8974L73.3752,74.7885L73.4255,74.6812L73.4782,74.5753L73.5334,74.4709L73.591,74.3681L73.651,74.2669L73.7132,74.1673L73.7778,74.0693L73.8446,73.9731L73.9137,73.8785L73.9849,73.7857L74.0582,73.6947L74.1337,73.6055L74.2112,73.5182L74.2907,73.4328L74.3722,73.3493L74.4557,73.2678L74.5411,73.1883L74.6285,73.1108L74.7176,73.0353L74.8086,72.962L74.9014,72.8908L74.996,72.8217L75.0922,72.7549L75.1902,72.6903L75.2898,72.6281L75.391,72.5681L75.4939,72.5105L75.5982,72.4553L75.7041,72.4026L75.8114,72.3523L75.9202,72.3046L76.0304,72.2594L76.142,72.2169L76.2547,72.1771L76.3688,72.1399L76.4842,72.1055L76.6007,72.0738L76.7182,72.045L76.8368,72.0191L76.9566,71.996L77.0772,71.976L77.1987,71.9589L77.321,71.9448L77.4442,71.9338L77.568,71.9259L77.6925,71.9212L77.8176,71.9196L77.9427,71.9212L78.0672,71.9259L78.191,71.9338L78.3142,71.9448L78.4365,71.9589L78.558,71.976L78.6786,71.996L78.7984,72.0191L78.917,72.045L79.0345,72.0738L79.151,72.1055L79.2663,72.1399L79.3804,72.177L79.4932,72.2169L79.6048,72.2594L79.715,72.3046L79.8237,72.3523L79.9311,72.4026L80.037,72.4553L80.1413,72.5105L80.2442,72.5681L80.3454,72.6281L80.445,72.6903L80.543,72.7549L80.6393,72.8217L80.7338,72.8908L80.8266,72.962L80.9176,73.0353L81.0067,73.1108L81.094,73.1883L81.1795,73.2678L81.263,73.3493L81.3445,73.4328L81.424,73.5182L81.5015,73.6055L81.577,73.6947L81.6503,73.7857L81.7215,73.8785L81.7906,73.9731L81.8574,74.0693L81.9219,74.1672L81.9842,74.2669L82.0442,74.3681L82.1018,74.4709L82.157,74.5753L82.2097,74.6812L82.26,74.7885L82.3077,74.8974L82.3529,75.0075L82.3954,75.119L82.4352,75.2318L82.4724,75.3459L82.5069,75.4613L82.5385,75.5778L82.5673,75.6953L82.5932,75.814L82.6163,75.9336L82.6363,76.0542L82.6534,76.1758L82.6675,76.2982L82.6785,76.4213L82.6864,76.5451L82.6911,76.6696L82.6927,76.7947L82.6911,76.9197L82.6864,77.0443L82.6785,77.168L82.6675,77.2911L82.6534,77.4135L82.6363,77.535L82.6162,77.6556L82.5932,77.7752L82.5673,77.8939L82.5385,78.0114L82.5068,78.1278L82.4724,78.2432L82.4352,78.3572L82.3953,78.4701L82.3528,78.5815L82.3077,78.6917L82.26,78.8005L82.2097,78.9078L82.157,79.0137L82.1018,79.118L82.0442,79.2208L81.9842,79.3221L81.922,79.4217L81.8574,79.5196L81.7906,79.6159L81.7216,79.7104L81.6504,79.8032L81.577,79.8942L81.5016,79.9833L81.4241,80.0707L81.3446,80.1561L81.2631,80.2396L81.1796,80.3211L81.0942,80.4007L81.0069,80.4782L80.9177,80.5536L80.8268,80.627L80.734,80.6982L80.6394,80.7673L80.5432,80.8341L80.4452,80.8987L80.3456,80.961L80.2444,81.0209L80.1416,81.0786L80.0372,81.1338L79.9313,81.1865L79.824,81.2368L79.7152,81.2846L79.605,81.3297L79.4935,81.3723L79.3806,81.4122L79.2665,81.4494L79.1512,81.4838L79.0348,81.5155L78.9172,81.5443L78.7985,81.5703L78.6788,81.5933L78.5582,81.6134L78.4367,81.6305L78.3143,81.6446L78.1911,81.6556L78.0672,81.6635L77.9427,81.6682L77.8367,81.6696L77.8176,80.1697L77.7985,81.6696ZM77.8176,78.6696L77.8663,78.669L77.9145,78.6671L77.9622,78.6641L78.0094,78.6599L78.0563,78.6545L78.1027,78.6479L78.1487,78.6403L78.1942,78.6315L78.2393,78.6216L78.2841,78.6107L78.3284,78.5986L78.3722,78.5855L78.4156,78.5714L78.4586,78.5562L78.5012,78.54L78.5432,78.5227L78.5848,78.5045L78.6259,78.4852L78.6666,78.4649L78.7067,78.4437L78.7462,78.4216L78.7853,78.3984L78.8238,78.3744L78.8616,78.3494L78.8989,78.3235L78.9356,78.2967L78.9716,78.2691L79.007,78.2405L79.0417,78.2112L79.0756,78.181L79.1089,78.1501L79.1414,78.1183L79.1731,78.0858L79.2041,78.0525L79.2342,78.0186L79.2636,77.9839L79.2921,77.9485L79.3197,77.9125L79.3465,77.8758L79.3724,77.8385L79.3974,77.8006L79.4214,77.7621L79.4445,77.7232L79.4667,77.6836L79.4879,77.6434L79.5082,77.6028L79.5274,77.5617L79.5457,77.5201L79.5629,77.478L79.5792,77.4354L79.5943,77.3925L79.6085,77.3491L79.6216,77.3052L79.6336,77.2609L79.6446,77.2162L79.6544,77.1711L79.6632,77.1255L79.6709,77.0796L79.6774,77.0332L79.6828,76.9864L79.687,76.9392L79.69,76.8914L79.6919,76.8434L79.6925,76.7947L79.6919,76.746L79.69,76.6978L79.687,76.65L79.6827,76.6027L79.6774,76.5559L79.6708,76.5095L79.6632,76.4635L79.6544,76.4179L79.6445,76.3728L79.6336,76.328L79.6215,76.2837L79.6085,76.2399L79.5943,76.1965L79.5791,76.1535L79.5629,76.1109L79.5456,76.0688L79.5274,76.0273L79.5082,75.9861L79.4879,75.9455L79.4667,75.9054L79.4445,75.8658L79.4214,75.8268L79.3974,75.7884L79.3724,75.7505L79.3465,75.7132L79.3197,75.6765L79.2921,75.6405L79.2637,75.6052L79.2343,75.5705L79.2042,75.5366L79.1732,75.5033L79.1415,75.4708L79.109,75.4391L79.0758,75.4081L79.0418,75.378L79.0071,75.3486L78.9718,75.3202L78.9358,75.2925L78.8991,75.2658L78.8618,75.2399L78.824,75.2149L78.7855,75.1909L78.7465,75.1677L78.7069,75.1456L78.6668,75.1244L78.6262,75.1041L78.5851,75.0849L78.5434,75.0666L78.5014,75.0494L78.4589,75.0332L78.4158,75.018L78.3724,75.0038L78.3285,74.9907L78.2843,74.9787L78.2395,74.9678L78.1944,74.9579L78.1488,74.9491L78.1028,74.9415L78.0564,74.9349L78.0095,74.9295L77.9623,74.9253L77.9145,74.9223L77.8663,74.9204L77.8176,74.9198L77.7689,74.9204L77.7207,74.9223L77.6729,74.9253L77.6257,74.9295L77.5788,74.9349L77.5324,74.9415L77.4864,74.9491L77.4408,74.9579L77.3957,74.9678L77.3509,74.9787L77.3067,74.9907L77.2628,75.0038L77.2194,75.018L77.1763,75.0332L77.1338,75.0494L77.0918,75.0666L77.0502,75.0849L77.009,75.1041L76.9684,75.1244L76.9283,75.1456L76.8887,75.1677L76.8497,75.1909L76.8112,75.2149L76.7734,75.2399L76.7361,75.2658L76.6994,75.2925L76.6634,75.3201L76.628,75.3487L76.5934,75.378L76.5595,75.4081L76.5262,75.4391L76.4937,75.4708L76.462,75.5033L76.431,75.5366L76.4009,75.5705L76.3715,75.6052L76.3431,75.6405L76.3154,75.6765L76.2887,75.7132L76.2628,75.7505L76.2378,75.7883L76.2138,75.8268L76.1906,75.8658L76.1685,75.9054L76.1473,75.9455L76.127,75.9861L76.1078,76.0273L76.0896,76.0688L76.0723,76.1109L76.0561,76.1535L76.0409,76.1965L76.0267,76.2399L76.0136,76.2838L76.0016,76.328L75.9907,76.3728L75.9808,76.4179L75.972,76.4635L75.9644,76.5095L75.9578,76.5559L75.9524,76.6028L75.9482,76.65L75.9452,76.6978L75.9433,76.746L75.9427,76.7947L75.9433,76.8433L75.9452,76.8915L75.9482,76.9392L75.9524,76.9864L75.9578,77.0332L75.9643,77.0796L75.972,77.1256L75.9808,77.1711L75.9906,77.2162L76.0016,77.2609L76.0136,77.3052L76.0267,77.3491L76.0409,77.3925L76.056,77.4354L76.0723,77.478L76.0895,77.5201L76.1078,77.5617L76.127,77.6028L76.1473,77.6434L76.1685,77.6836L76.1906,77.7231L76.2138,77.7622L76.2378,77.8007L76.2628,77.8385L76.2887,77.8758L76.3155,77.9125L76.3431,77.9485L76.3716,77.9839L76.401,78.0186L76.4311,78.0525L76.4621,78.0858L76.4938,78.1183L76.5263,78.1501L76.5596,78.1811L76.5935,78.2112L76.6282,78.2405L76.6636,78.2691L76.6996,78.2967L76.7362,78.3235L76.7736,78.3494L76.8114,78.3744L76.8499,78.3984L76.889,78.4216L76.9285,78.4437L76.9686,78.4649L77.0093,78.4852L77.0504,78.5045L77.092,78.5227L77.134,78.5399L77.1766,78.5562L77.2196,78.5714L77.263,78.5855L77.3068,78.5986L77.3511,78.6107L77.3958,78.6216L77.441,78.6315L77.4865,78.6403L77.5325,78.6479L77.5789,78.6545L77.6258,78.6599L77.673,78.6641L77.7207,78.6671L77.7689,78.669L77.8176,78.6696Z" style="fill:black;"/>
            <path d="M34.4221,133.247L71.5571,129.294L84.7661,140.534L135.11,59.5939L160.282,92.0499" style="fill:none;stroke-width:3px;stroke:black;"/>
            <path d="M135.111,62.9676C136.97,62.9676 138.486,61.4516 138.486,59.5936C138.486,57.7346 136.97,56.2186 135.111,56.2186C133.252,56.2186 131.736,57.7346 131.736,59.5936C131.736,61.4516 133.252,62.9676 135.111,62.9676" style="fill:white;"/>
            <path d="M135.092,64.4675L134.986,64.4661L134.861,64.4614L134.737,64.4535L134.614,64.4425L134.492,64.4284L134.37,64.4113L134.25,64.3913L134.13,64.3682L134.011,64.3423L133.894,64.3135L133.777,64.2819L133.662,64.2474L133.548,64.2103L133.435,64.1704L133.323,64.1279L133.213,64.0827L133.104,64.035L132.997,63.9848L132.891,63.932L132.787,63.8769L132.684,63.8193L132.583,63.7593L132.483,63.6971L132.385,63.6325L132.289,63.5657L132.194,63.4967L132.102,63.4254L132.011,63.3521L131.922,63.2767L131.834,63.1992L131.749,63.1197L131.665,63.0382L131.584,62.9547L131.504,62.8693L131.427,62.782L131.351,62.6929L131.278,62.6019L131.207,62.5091L131.138,62.4146L131.071,62.3184L131.006,62.2204L130.944,62.1208L130.884,62.0197L130.826,61.9168L130.771,61.8125L130.719,61.7067L130.668,61.5993L130.621,61.4905L130.575,61.3804L130.533,61.2689L130.493,61.1562L130.456,61.042L130.421,60.9267L130.39,60.8102L130.361,60.6928L130.335,60.5742L130.312,60.4545L130.292,60.3339L130.275,60.2124L130.261,60.0901L130.25,59.967L130.242,59.8431L130.237,59.7187L130.235,59.5936L130.237,59.4685L130.242,59.344L130.25,59.2201L130.261,59.097L130.275,58.9747L130.292,58.8532L130.312,58.7326L130.335,58.6128L130.361,58.4942L130.39,58.3767L130.421,58.2602L130.456,58.1449L130.493,58.0307L130.533,57.9179L130.575,57.8064L130.62,57.6963L130.668,57.5875L130.718,57.4801L130.771,57.3742L130.826,57.2698L130.884,57.167L130.944,57.0658L131.006,56.9662L131.071,56.8682L131.138,56.7719L131.207,56.6774L131.278,56.5846L131.351,56.4936L131.427,56.4045L131.504,56.3172L131.584,56.2317L131.665,56.1483L131.749,56.0667L131.834,55.9872L131.921,55.9097L132.011,55.8343L132.102,55.7609L132.194,55.6897L132.289,55.6206L132.385,55.5538L132.483,55.4892L132.583,55.427L132.684,55.367L132.787,55.3094L132.891,55.2542L132.997,55.2015L133.104,55.1512L133.213,55.1035L133.323,55.0583L133.435,55.0158L133.548,54.9759L133.662,54.9388L133.777,54.9044L133.894,54.8727L134.011,54.8439L134.13,54.818L134.25,54.7949L134.37,54.7749L134.492,54.7578L134.614,54.7437L134.737,54.7327L134.861,54.7248L134.986,54.7201L135.111,54.7185L135.236,54.7201L135.36,54.7248L135.484,54.7327L135.607,54.7437L135.73,54.7578L135.851,54.7749L135.972,54.7949L136.091,54.818L136.21,54.8439L136.328,54.8727L136.444,54.9043L136.559,54.9388L136.673,54.9759L136.786,55.0158L136.898,55.0584L137.008,55.1035L137.117,55.1512L137.224,55.2015L137.33,55.2542L137.434,55.3094L137.537,55.367L137.638,55.427L137.738,55.4892L137.836,55.5538L137.932,55.6207L138.027,55.6897L138.12,55.7609L138.211,55.8343L138.3,55.9097L138.387,55.9871L138.472,56.0667L138.556,56.1483L138.638,56.2318L138.717,56.3172L138.794,56.4044L138.87,56.4936L138.943,56.5846L139.015,56.6774L139.084,56.7719L139.15,56.8683L139.215,56.9662L139.277,57.0658L139.337,57.167L139.395,57.2698L139.45,57.3742L139.503,57.4801L139.553,57.5875L139.601,57.6962L139.646,57.8064L139.688,57.9179L139.728,58.0308L139.765,58.1449L139.8,58.2601L139.831,58.3766L139.86,58.4942L139.886,58.6129L139.909,58.7326L139.929,58.8532L139.946,58.9747L139.96,59.097L139.971,59.2201L139.979,59.3439L139.984,59.4686L139.986,59.5936L139.984,59.7186L139.979,59.8432L139.971,59.967L139.96,60.0901L139.946,60.2124L139.929,60.3339L139.909,60.4545L139.886,60.5741L139.86,60.6928L139.831,60.8103L139.8,60.9268L139.765,61.0419L139.728,61.1561L139.688,61.2689L139.646,61.3804L139.601,61.4906L139.553,61.5993L139.503,61.7066L139.45,61.8126L139.395,61.9168L139.337,62.0197L139.277,62.1209L139.215,62.2204L139.15,62.3183L139.083,62.4146L139.014,62.5091L138.943,62.6019L138.87,62.6929L138.794,62.7821L138.717,62.8693L138.637,62.9547L138.556,63.0382L138.472,63.1197L138.387,63.1993L138.3,63.2767L138.21,63.3521L138.119,63.4255L138.027,63.4966L137.932,63.5657L137.836,63.6325L137.738,63.6971L137.638,63.7593L137.537,63.8193L137.434,63.8769L137.33,63.932L137.224,63.9848L137.117,64.035L137.008,64.0827L136.898,64.1279L136.786,64.1704L136.673,64.2103L136.559,64.2474L136.444,64.2819L136.328,64.3135L136.21,64.3423L136.091,64.3682L135.972,64.3913L135.851,64.4113L135.73,64.4284L135.607,64.4425L135.484,64.4535L135.36,64.4614L135.236,64.4661L135.13,64.4675L135.111,62.9676L135.092,64.4675ZM135.111,61.4675L135.159,61.4669L135.207,61.465L135.255,61.462L135.303,61.4577L135.349,61.4524L135.396,61.4458L135.442,61.4382L135.487,61.4294L135.533,61.4195L135.577,61.4086L135.622,61.3965L135.665,61.3835L135.709,61.3693L135.752,61.3541L135.794,61.3379L135.836,61.3207L135.878,61.3024L135.919,61.2831L135.96,61.2629L136,61.2417L136.04,61.2195L136.079,61.1964L136.117,61.1724L136.155,61.1474L136.192,61.1216L136.229,61.0948L136.265,61.0671L136.3,61.0387L136.335,61.0093L136.369,60.9791L136.402,60.9482L136.435,60.9165L136.466,60.884L136.497,60.8508L136.527,60.8168L136.557,60.7821L136.585,60.7469L136.613,60.7109L136.64,60.6742L136.665,60.637L136.69,60.5991L136.715,60.5606L136.738,60.5216L136.76,60.4821L136.781,60.4419L136.801,60.4014L136.82,60.3603L136.839,60.3186L136.856,60.2767L136.872,60.2341L136.887,60.1912L136.901,60.1479L136.915,60.1039L136.927,60.0597L136.938,60.015L136.947,59.9699L136.956,59.9244L136.964,59.8785L136.97,59.8321L136.976,59.7853L136.98,59.738L136.983,59.6903L136.985,59.6423L136.985,59.5936L136.985,59.5448L136.983,59.4968L136.98,59.449L136.976,59.4017L136.97,59.3548L136.964,59.3084L136.956,59.2624L136.947,59.2168L136.938,59.1717L136.927,59.127L136.915,59.0827L136.901,59.0387L136.887,58.9953L136.872,58.9524L136.856,58.9098L136.839,58.8678L136.82,58.8261L136.801,58.785L136.781,58.7445L136.76,58.7043L136.738,58.6647L136.714,58.6257L136.69,58.5872L136.665,58.5493L136.64,58.5121L136.613,58.4754L136.585,58.4394L136.557,58.4041L136.527,58.3694L136.497,58.3354L136.466,58.3022L136.434,58.2697L136.402,58.238L136.369,58.2071L136.335,58.1769L136.3,58.1475L136.265,58.1191L136.229,58.0914L136.192,58.0646L136.155,58.0388L136.117,58.0138L136.078,57.9898L136.039,57.9666L136,57.9445L135.96,57.9233L135.919,57.903L135.878,57.8838L135.836,57.8655L135.794,57.8483L135.752,57.8321L135.709,57.8169L135.665,57.8027L135.622,57.7896L135.577,57.7776L135.533,57.7666L135.487,57.7568L135.442,57.748L135.396,57.7404L135.349,57.7338L135.303,57.7284L135.255,57.7242L135.208,57.7212L135.159,57.7193L135.111,57.7187L135.062,57.7193L135.014,57.7212L134.966,57.7242L134.919,57.7284L134.872,57.7338L134.825,57.7404L134.779,57.748L134.734,57.7568L134.689,57.7666L134.644,57.7776L134.6,57.7896L134.556,57.8027L134.512,57.8169L134.469,57.8321L134.427,57.8483L134.385,57.8655L134.343,57.8838L134.302,57.903L134.261,57.9233L134.221,57.9445L134.182,57.9666L134.143,57.9898L134.104,58.0138L134.066,58.0388L134.029,58.0647L133.992,58.0915L133.956,58.119L133.921,58.1475L133.886,58.1769L133.852,58.207L133.819,58.238L133.787,58.2697L133.755,58.3022L133.724,58.3354L133.694,58.3694L133.665,58.4041L133.636,58.4394L133.608,58.4754L133.582,58.5121L133.556,58.5494L133.531,58.5872L133.507,58.6257L133.484,58.6647L133.461,58.7043L133.44,58.7444L133.42,58.7851L133.401,58.8261L133.383,58.8677L133.365,58.9098L133.349,58.9524L133.334,58.9954L133.32,59.0388L133.307,59.0826L133.295,59.1269L133.284,59.1717L133.274,59.2169L133.265,59.2624L133.257,59.3084L133.251,59.3548L133.245,59.4017L133.241,59.449L133.238,59.4967L133.236,59.5449L133.236,59.5936L133.236,59.6422L133.238,59.6904L133.241,59.738L133.245,59.7853L133.251,59.8321L133.257,59.8785L133.265,59.9244L133.274,59.9699L133.284,60.015L133.295,60.0598L133.307,60.104L133.32,60.1478L133.334,60.1911L133.349,60.2341L133.365,60.2767L133.382,60.3187L133.401,60.3603L133.42,60.4013L133.44,60.442L133.461,60.4821L133.484,60.5216L133.507,60.5607L133.531,60.5991L133.556,60.6369L133.582,60.6742L133.608,60.7109L133.636,60.7468L133.664,60.7821L133.694,60.8169L133.724,60.8508L133.755,60.884L133.787,60.9165L133.819,60.9483L133.852,60.9792L133.886,61.0093L133.921,61.0387L133.956,61.0672L133.992,61.0948L134.029,61.1215L134.066,61.1474L134.104,61.1724L134.143,61.1964L134.182,61.2195L134.221,61.2417L134.261,61.2629L134.302,61.2831L134.343,61.3024L134.385,61.3207L134.427,61.3379L134.469,61.3541L134.512,61.3693L134.556,61.3835L134.6,61.3966L134.644,61.4086L134.689,61.4195L134.734,61.4294L134.779,61.4382L134.825,61.4458L134.872,61.4524L134.919,61.4577L134.966,61.462L135.014,61.465L135.062,61.4669L135.111,61.4675Z" style="fill:black;"/>
            <path d="M84.7659,143.909C86.6239,143.909 88.1409,142.392 88.1409,140.534C88.1409,138.675 86.6239,137.159 84.7659,137.159C82.9069,137.159 81.3909,138.675 81.3909,140.534C81.3909,142.392 82.9069,143.909 84.7659,143.909" style="fill:white;"/>
            <path d="M84.7468,145.409L84.6408,145.408L84.5162,145.403L84.3924,145.395L84.2693,145.384L84.1468,145.37L84.0253,145.353L83.9048,145.333L83.785,145.31L83.6663,145.284L83.5487,145.255L83.4322,145.223L83.317,145.189L83.2028,145.151L83.09,145.112L82.9785,145.069L82.8683,145.024L82.7595,144.976L82.6522,144.926L82.5463,144.873L82.4419,144.818L82.3391,144.76L82.2379,144.7L82.1383,144.638L82.0403,144.573L81.944,144.507L81.8495,144.437L81.7568,144.366L81.6658,144.293L81.5766,144.217L81.4893,144.14L81.4039,144.06L81.3205,143.979L81.2389,143.895L81.1594,143.81L81.0819,143.723L81.0065,143.634L80.9331,143.542L80.8619,143.45L80.7929,143.355L80.7261,143.259L80.6615,143.161L80.5992,143.061L80.5393,142.96L80.4817,142.857L80.4265,142.753L80.3738,142.647L80.3235,142.54L80.2758,142.431L80.2307,142.321L80.1881,142.209L80.1483,142.096L80.1111,141.982L80.0767,141.867L80.045,141.751L80.0162,141.633L79.9903,141.515L79.9672,141.395L79.9472,141.274L79.9301,141.153L79.916,141.03L79.905,140.907L79.8971,140.784L79.8924,140.659L79.8908,140.534L79.8924,140.409L79.8971,140.284L79.905,140.161L79.916,140.037L79.9301,139.915L79.9472,139.794L79.9672,139.673L79.9903,139.553L80.0162,139.435L80.045,139.317L80.0766,139.201L80.1111,139.085L80.1482,138.971L80.1881,138.858L80.2307,138.747L80.2758,138.637L80.3235,138.528L80.3738,138.42L80.4265,138.315L80.4817,138.21L80.5393,138.107L80.5992,138.006L80.6616,137.907L80.7261,137.809L80.7929,137.712L80.862,137.618L80.9332,137.525L81.0065,137.434L81.0819,137.345L81.1595,137.258L81.239,137.172L81.3206,137.089L81.4041,137.007L81.4894,136.928L81.5767,136.85L81.6659,136.775L81.7569,136.701L81.8497,136.63L81.9442,136.561L82.0405,136.494L82.1385,136.43L82.2381,136.367L82.3393,136.307L82.4421,136.25L82.5465,136.195L82.6524,136.142L82.7597,136.092L82.8686,136.044L82.9787,135.999L83.0902,135.956L83.2031,135.916L83.3172,135.879L83.4325,135.845L83.5489,135.813L83.6665,135.784L83.7852,135.758L83.9048,135.735L84.0255,135.715L84.147,135.698L84.2693,135.684L84.3925,135.673L84.5163,135.665L84.6408,135.66L84.7659,135.659L84.891,135.66L85.0154,135.665L85.1392,135.673L85.2624,135.684L85.3847,135.698L85.5062,135.715L85.6269,135.735L85.7464,135.758L85.8651,135.784L85.9827,135.813L86.099,135.845L86.2144,135.879L86.3284,135.916L86.4413,135.956L86.5527,135.999L86.6629,136.044L86.7717,136.092L86.879,136.142L86.9849,136.195L87.0892,136.25L87.192,136.307L87.2933,136.367L87.3929,136.43L87.4908,136.494L87.5871,136.561L87.6816,136.63L87.7744,136.701L87.8653,136.775L87.9546,136.85L88.0419,136.928L88.1273,137.007L88.2108,137.089L88.2923,137.172L88.3719,137.257L88.4494,137.345L88.5248,137.434L88.5982,137.525L88.6694,137.618L88.7384,137.712L88.8053,137.808L88.8699,137.906L88.9322,138.006L88.9921,138.107L89.0498,138.21L89.105,138.314L89.1577,138.42L89.208,138.528L89.2558,138.636L89.3009,138.747L89.3435,138.858L89.3834,138.971L89.4206,139.085L89.455,139.2L89.4867,139.317L89.5155,139.434L89.5415,139.553L89.5645,139.673L89.5846,139.793L89.6017,139.915L89.6158,140.037L89.6268,140.16L89.6347,140.284L89.6394,140.409L89.641,140.534L89.6394,140.659L89.6347,140.784L89.6268,140.907L89.6158,141.031L89.6017,141.153L89.5846,141.274L89.5645,141.395L89.5414,141.515L89.5155,141.633L89.4866,141.751L89.455,141.867L89.4206,141.983L89.3834,142.097L89.3434,142.21L89.3009,142.321L89.2557,142.431L89.208,142.54L89.1577,142.647L89.105,142.753L89.0498,142.858L88.9921,142.96L88.9322,143.062L88.8699,143.161L88.8053,143.259L88.7384,143.355L88.6694,143.45L88.5982,143.543L88.5248,143.634L88.4494,143.723L88.372,143.81L88.2924,143.896L88.2109,143.979L88.1274,144.06L88.042,144.14L87.9547,144.218L87.8655,144.293L87.7745,144.366L87.6818,144.438L87.5873,144.507L87.491,144.573L87.3931,144.638L87.2934,144.7L87.1923,144.76L87.0894,144.818L86.9851,144.873L86.8792,144.926L86.7719,144.976L86.6631,145.024L86.553,145.069L86.4415,145.112L86.3286,145.151L86.2145,145.189L86.0993,145.223L85.9828,145.255L85.8652,145.284L85.7466,145.31L85.6269,145.333L85.5064,145.353L85.3849,145.37L85.2624,145.384L85.1393,145.395L85.0155,145.403L84.891,145.408L84.785,145.409L84.7659,143.909L84.7468,145.409ZM84.7659,142.409L84.8145,142.408L84.8626,142.406L84.9103,142.403L84.9576,142.399L85.0043,142.394L85.0506,142.387L85.0967,142.38L85.1422,142.371L85.1873,142.361L85.2319,142.35L85.2762,142.338L85.3201,142.325L85.3635,142.311L85.4064,142.296L85.4489,142.279L85.4911,142.262L85.5327,142.244L85.5738,142.225L85.6144,142.204L85.6545,142.183L85.6941,142.161L85.7332,142.138L85.7716,142.114L85.8095,142.089L85.8468,142.063L85.8835,142.036L85.9196,142.008L85.955,141.98L85.9896,141.95L86.0236,141.92L86.0569,141.889L86.0894,141.857L86.1212,141.825L86.1521,141.792L86.1823,141.758L86.2117,141.723L86.2402,141.688L86.2679,141.652L86.2947,141.615L86.3206,141.578L86.3455,141.54L86.3696,141.501L86.3928,141.462L86.4149,141.423L86.4361,141.383L86.4564,141.342L86.4757,141.301L86.4939,141.259L86.5112,141.217L86.5274,141.175L86.5426,141.132L86.5568,141.088L86.5699,141.044L86.5819,141L86.5929,140.955L86.6027,140.91L86.6115,140.865L86.6191,140.819L86.6257,140.772L86.6311,140.726L86.6353,140.678L86.6383,140.631L86.6402,140.583L86.6408,140.534L86.6402,140.485L86.6383,140.437L86.6353,140.389L86.631,140.342L86.6257,140.295L86.6191,140.249L86.6115,140.203L86.6027,140.157L86.5928,140.112L86.5819,140.068L86.5698,140.023L86.5567,139.979L86.5426,139.936L86.5274,139.893L86.5111,139.85L86.4939,139.808L86.4757,139.767L86.4564,139.726L86.4361,139.685L86.4149,139.645L86.3928,139.605L86.3696,139.566L86.3456,139.528L86.3206,139.49L86.2947,139.453L86.2679,139.416L86.2403,139.38L86.2118,139.345L86.1824,139.31L86.1522,139.276L86.1213,139.243L86.0895,139.21L86.057,139.178L86.0237,139.147L85.9897,139.117L85.9551,139.088L85.9198,139.06L85.8837,139.032L85.847,139.005L85.8097,138.979L85.7718,138.954L85.7333,138.93L85.6943,138.907L85.6548,138.885L85.6146,138.864L85.574,138.843L85.5328,138.824L85.4913,138.806L85.4492,138.789L85.4066,138.772L85.3637,138.757L85.3203,138.743L85.2764,138.73L85.2321,138.718L85.1874,138.707L85.1423,138.697L85.0967,138.688L85.0508,138.681L85.0044,138.674L84.9576,138.669L84.9104,138.665L84.8627,138.662L84.8145,138.66L84.7659,138.659L84.7172,138.66L84.669,138.662L84.6212,138.665L84.574,138.669L84.5271,138.674L84.4807,138.681L84.4347,138.688L84.3891,138.697L84.344,138.707L84.2993,138.718L84.2549,138.73L84.2111,138.743L84.1676,138.757L84.1247,138.772L84.0821,138.789L84.04,138.806L83.9985,138.824L83.9573,138.843L83.9167,138.864L83.8766,138.885L83.837,138.907L83.798,138.93L83.7595,138.954L83.7217,138.979L83.6844,139.005L83.6477,139.032L83.6117,139.059L83.5763,139.088L83.5417,139.117L83.5078,139.147L83.4745,139.178L83.442,139.21L83.4103,139.243L83.3793,139.276L83.3492,139.31L83.3198,139.344L83.2913,139.38L83.2638,139.416L83.237,139.452L83.2111,139.49L83.1861,139.528L83.1621,139.566L83.1389,139.605L83.1168,139.645L83.0956,139.685L83.0753,139.725L83.0561,139.767L83.0378,139.808L83.0206,139.85L83.0044,139.893L82.9892,139.936L82.975,139.979L82.9619,140.023L82.9499,140.067L82.939,140.112L82.9291,140.157L82.9203,140.203L82.9127,140.249L82.9061,140.295L82.9007,140.342L82.8965,140.389L82.8935,140.437L82.8916,140.485L82.891,140.534L82.8916,140.583L82.8935,140.631L82.8965,140.678L82.9007,140.726L82.9061,140.773L82.9126,140.819L82.9203,140.865L82.9291,140.91L82.9389,140.956L82.9499,141L82.9619,141.044L82.975,141.088L82.9892,141.132L83.0044,141.175L83.0206,141.217L83.0378,141.259L83.0561,141.301L83.0753,141.342L83.0956,141.383L83.1168,141.423L83.1389,141.462L83.1621,141.501L83.1861,141.54L83.2111,141.578L83.237,141.615L83.2638,141.652L83.2914,141.688L83.3199,141.723L83.3492,141.758L83.3794,141.792L83.4104,141.825L83.4421,141.858L83.4746,141.889L83.5079,141.92L83.5419,141.951L83.5765,141.98L83.6119,142.008L83.6479,142.036L83.6846,142.063L83.7219,142.089L83.7597,142.114L83.7982,142.138L83.8372,142.161L83.8768,142.183L83.9169,142.204L83.9575,142.224L83.9987,142.244L84.0403,142.262L84.0824,142.279L84.1249,142.296L84.1679,142.311L84.2113,142.325L84.2552,142.338L84.2995,142.35L84.3441,142.361L84.3893,142.371L84.4347,142.38L84.4808,142.387L84.5273,142.394L84.574,142.399L84.6213,142.403L84.6691,142.406L84.7172,142.408L84.7659,142.409Z" style="fill:black;"/>
            <path d="M71.5569,132.668C73.4149,132.668 74.9319,131.152 74.9319,129.293C74.9319,127.435 73.4149,125.918 71.5569,125.918C69.6979,125.918 68.1819,127.435 68.1819,129.293C68.1819,131.152 69.6979,132.668 71.5569,132.668" style="fill:white;"/>
            <path d="M71.5378,134.168L71.4318,134.166L71.3073,134.162L71.1834,134.154L71.0603,134.143L70.938,134.129L70.8165,134.112L70.6959,134.091L70.5762,134.068L70.4575,134.043L70.3399,134.014L70.2235,133.982L70.1081,133.948L69.994,133.91L69.8812,133.871L69.7697,133.828L69.6596,133.783L69.5508,133.735L69.4434,133.685L69.3375,133.632L69.2331,133.577L69.1303,133.519L69.0291,133.459L68.9295,133.397L68.8315,133.333L68.7352,133.266L68.6407,133.197L68.5479,133.125L68.4569,133.052L68.3678,132.977L68.2805,132.899L68.195,132.82L68.1115,132.738L68.03,132.655L67.9505,132.569L67.873,132.482L67.7975,132.393L67.7242,132.302L67.653,132.209L67.5839,132.114L67.5171,132.018L67.4525,131.92L67.3903,131.821L67.3303,131.719L67.2727,131.617L67.2175,131.512L67.1648,131.406L67.1145,131.299L67.0668,131.19L67.0216,131.08L66.9791,130.968L66.9392,130.856L66.9021,130.742L66.8677,130.626L66.836,130.51L66.8072,130.392L66.7813,130.274L66.7582,130.154L66.7381,130.033L66.7211,129.912L66.707,129.789L66.696,129.666L66.6881,129.542L66.6834,129.418L66.6818,129.293L66.6834,129.168L66.6881,129.043L66.696,128.919L66.707,128.796L66.7211,128.674L66.7382,128.553L66.7582,128.432L66.7813,128.312L66.8072,128.194L66.836,128.076L66.8677,127.96L66.9021,127.844L66.9393,127.73L66.9791,127.617L67.0217,127.506L67.0668,127.396L67.1145,127.287L67.1648,127.18L67.2175,127.074L67.2727,126.969L67.3303,126.867L67.3902,126.765L67.4525,126.666L67.5171,126.568L67.5839,126.472L67.6529,126.377L67.7242,126.284L67.7974,126.193L67.8729,126.104L67.9504,126.017L68.03,125.931L68.1114,125.848L68.1949,125.766L68.2803,125.687L68.3676,125.609L68.4568,125.534L68.5478,125.461L68.6405,125.389L68.735,125.32L68.8313,125.253L68.9293,125.189L69.0289,125.126L69.1301,125.067L69.2329,125.009L69.3373,124.954L69.4431,124.901L69.5504,124.851L69.6593,124.803L69.7695,124.758L69.881,124.715L69.9939,124.675L70.108,124.638L70.2232,124.604L70.3397,124.572L70.4573,124.543L70.576,124.517L70.6957,124.494L70.8163,124.474L70.9379,124.457L71.0602,124.443L71.1834,124.432L71.3073,124.424L71.4318,124.419L71.5569,124.418L71.682,124.419L71.8064,124.424L71.9303,124.432L72.0535,124.443L72.1758,124.457L72.2974,124.474L72.418,124.494L72.5376,124.517L72.6562,124.543L72.7738,124.572L72.8903,124.604L73.0055,124.638L73.1196,124.675L73.2324,124.715L73.3439,124.758L73.4541,124.803L73.563,124.851L73.6703,124.901L73.7761,124.954L73.8804,125.009L73.9833,125.067L74.0844,125.126L74.1841,125.189L74.282,125.253L74.3782,125.32L74.4728,125.389L74.5656,125.46L74.6565,125.534L74.7457,125.609L74.833,125.687L74.9184,125.766L75.0019,125.848L75.0834,125.931L75.1629,126.017L75.2405,126.104L75.3159,126.193L75.3892,126.284L75.4605,126.377L75.5295,126.471L75.5963,126.568L75.6609,126.666L75.7232,126.765L75.7831,126.866L75.8408,126.969L75.896,127.074L75.9487,127.179L75.999,127.287L76.0467,127.396L76.0919,127.506L76.1344,127.617L76.1744,127.73L76.2116,127.844L76.246,127.959L76.2776,128.076L76.3065,128.193L76.3324,128.312L76.3555,128.432L76.3756,128.552L76.3927,128.674L76.4068,128.796L76.4178,128.919L76.4257,129.043L76.4304,129.168L76.432,129.293L76.4304,129.418L76.4257,129.542L76.4178,129.666L76.4068,129.789L76.3927,129.912L76.3756,130.033L76.3555,130.154L76.3325,130.274L76.3065,130.392L76.2777,130.51L76.246,130.626L76.2116,130.742L76.1744,130.856L76.1345,130.969L76.0919,131.08L76.0468,131.19L75.999,131.299L75.9487,131.407L75.896,131.512L75.8408,131.617L75.7831,131.72L75.7232,131.821L75.6609,131.92L75.5963,132.018L75.5295,132.115L75.4604,132.209L75.3891,132.302L75.3158,132.393L75.2404,132.482L75.1628,132.569L75.0833,132.655L75.0018,132.738L74.9183,132.82L74.8328,132.899L74.7455,132.977L74.6564,133.052L74.5654,133.126L74.4726,133.197L74.3781,133.266L74.2818,133.333L74.1839,133.397L74.0842,133.459L73.983,133.519L73.8802,133.577L73.7758,133.632L73.6701,133.685L73.5626,133.735L73.4539,133.783L73.3437,133.828L73.2323,133.871L73.1195,133.91L73.0054,133.948L72.89,133.982L72.7737,134.014L72.6561,134.042L72.5374,134.068L72.4178,134.091L72.2972,134.112L72.1757,134.129L72.0534,134.143L71.9303,134.154L71.8064,134.162L71.682,134.166L71.576,134.168L71.5569,132.668L71.5378,134.168ZM71.5569,131.168L71.6055,131.167L71.6537,131.165L71.7013,131.162L71.7486,131.158L71.7954,131.153L71.8418,131.146L71.8878,131.138L71.9333,131.13L71.9784,131.12L72.0231,131.109L72.0674,131.097L72.1113,131.084L72.1546,131.07L72.1976,131.054L72.2402,131.038L72.2823,131.021L72.3239,131.003L72.3649,130.983L72.4056,130.963L72.4458,130.942L72.4853,130.92L72.5244,130.897L72.5628,130.873L72.6007,130.848L72.638,130.822L72.6747,130.795L72.7107,130.767L72.7461,130.739L72.7808,130.709L72.8148,130.679L72.848,130.648L72.8805,130.617L72.9123,130.584L72.9433,130.551L72.9734,130.517L73.0027,130.482L73.0313,130.447L73.0589,130.411L73.0857,130.374L73.1116,130.337L73.1365,130.299L73.1606,130.26L73.1838,130.221L73.2059,130.182L73.2271,130.142L73.2474,130.101L73.2667,130.06L73.2849,130.018L73.3021,129.976L73.3184,129.934L73.3336,129.891L73.3477,129.847L73.3608,129.804L73.3729,129.759L73.3838,129.715L73.3937,129.669L73.4025,129.624L73.4101,129.578L73.4167,129.532L73.422,129.485L73.4263,129.437L73.4293,129.39L73.4312,129.341L73.4318,129.293L73.4312,129.244L73.4293,129.196L73.4263,129.148L73.4221,129.101L73.4167,129.054L73.4101,129.008L73.4025,128.962L73.3937,128.917L73.3839,128.871L73.3729,128.827L73.3609,128.782L73.3478,128.739L73.3336,128.695L73.3184,128.652L73.3022,128.61L73.2849,128.568L73.2667,128.526L73.2474,128.485L73.2271,128.444L73.2059,128.404L73.1838,128.365L73.1606,128.326L73.1365,128.287L73.1116,128.249L73.0856,128.212L73.0589,128.175L73.0313,128.139L73.0027,128.104L72.9733,128.069L72.9432,128.035L72.9122,128.002L72.8804,127.969L72.8479,127.938L72.8146,127.907L72.7806,127.876L72.7459,127.847L72.7106,127.818L72.6745,127.791L72.6378,127.764L72.6005,127.738L72.5626,127.713L72.5242,127.689L72.4851,127.666L72.4455,127.644L72.4054,127.623L72.3647,127.602L72.3236,127.583L72.2821,127.565L72.24,127.548L72.1975,127.531L72.1545,127.516L72.1111,127.502L72.0672,127.489L72.0229,127.477L71.9783,127.466L71.9331,127.456L71.8876,127.447L71.8416,127.44L71.7953,127.433L71.7485,127.428L71.7013,127.423L71.6537,127.42L71.6055,127.419L71.5569,127.418L71.5082,127.419L71.46,127.42L71.4123,127.423L71.3651,127.428L71.3182,127.433L71.2718,127.44L71.2258,127.447L71.1803,127.456L71.1351,127.466L71.0905,127.477L71.0462,127.489L71.0023,127.502L70.9589,127.516L70.9158,127.531L70.8733,127.548L70.8313,127.565L70.7897,127.583L70.7486,127.602L70.7079,127.623L70.6678,127.644L70.6283,127.666L70.5892,127.689L70.5507,127.713L70.5129,127.738L70.4756,127.764L70.4389,127.791L70.4029,127.818L70.3675,127.847L70.3328,127.876L70.2989,127.906L70.2657,127.937L70.2331,127.969L70.2013,128.002L70.1704,128.035L70.1403,128.069L70.1109,128.104L70.0824,128.139L70.0548,128.175L70.028,128.212L70.0021,128.249L69.9771,128.287L69.9531,128.325L69.9299,128.364L69.9078,128.404L69.8866,128.444L69.8663,128.485L69.8471,128.526L69.8288,128.567L69.8116,128.61L69.7954,128.652L69.7802,128.695L69.766,128.738L69.7529,128.782L69.7409,128.827L69.7299,128.871L69.7201,128.916L69.7113,128.962L69.7036,129.008L69.6971,129.054L69.6917,129.101L69.6875,129.148L69.6845,129.196L69.6826,129.244L69.682,129.293L69.6826,129.341L69.6845,129.39L69.6875,129.437L69.6917,129.485L69.6971,129.532L69.7037,129.578L69.7113,129.624L69.7201,129.67L69.73,129.715L69.7409,129.759L69.7529,129.804L69.766,129.848L69.7802,129.891L69.7954,129.934L69.8116,129.977L69.8288,130.019L69.8471,130.06L69.8663,130.101L69.8866,130.142L69.9078,130.182L69.9299,130.222L69.9531,130.261L69.9771,130.299L70.0021,130.337L70.028,130.374L70.0547,130.411L70.0823,130.447L70.1108,130.482L70.1402,130.517L70.1703,130.551L70.2013,130.584L70.233,130.617L70.2655,130.648L70.2987,130.679L70.3327,130.709L70.3674,130.739L70.4027,130.767L70.4387,130.795L70.4754,130.822L70.5127,130.848L70.5505,130.873L70.589,130.897L70.628,130.92L70.6676,130.942L70.7077,130.963L70.7484,130.983L70.7894,131.003L70.831,131.021L70.8731,131.038L70.9157,131.054L70.9587,131.07L71.0021,131.084L71.0459,131.097L71.0903,131.109L71.135,131.12L71.1801,131.13L71.2257,131.138L71.2717,131.146L71.3181,131.153L71.365,131.158L71.4123,131.162L71.46,131.165L71.5082,131.167L71.5569,131.168Z" style="fill:black;"/>
        </g>
    </g>
</svg>
