<?xml version="1.0" standalone="no"?>
<!DOCTYPE svg PUBLIC "-//W3C//DTD SVG 1.1//EN" "http://www.w3.org/Graphics/SVG/1.1/DTD/svg11.dtd">
<svg width="100%" height="100%" viewBox="0 0 169 169" version="1.1" xmlns="http://www.w3.org/2000/svg" xmlns:xlink="http://www.w3.org/1999/xlink" xml:space="preserve" style="fill-rule:evenodd;clip-rule:evenodd;stroke-linecap:round;stroke-linejoin:round;stroke-miterlimit:22.926;">
    <g>
        <path d="M40.4619,129.458C29.0729,118.07 22.0299,102.338 22.0299,84.9596C22.0299,62.6686 33.6199,43.0856 51.1029,31.9056L84.9599,84.9596L40.4619,129.458Z" style="fill:black;"/>
        <path d="M40.4619,129.458C29.0729,118.07 22.0299,102.338 22.0299,84.9596C22.0299,62.6686 33.6199,43.0856 51.1029,31.9056L84.9599,84.9596L40.4619,129.458Z" style="fill:black;fill-rule:nonzero;stroke-width:1.92px;stroke:white;"/>
        <path d="M138.012,51.0982C144.265,60.8742 147.891,72.4942 147.891,84.9592C147.891,119.715 119.716,147.89 84.9597,147.89C67.5827,147.89 51.8497,140.846 40.4617,129.457L84.9597,84.9592L138.012,51.0982Z" style="fill:black;"/>
        <path d="M138.012,51.0982C144.265,60.8742 147.891,72.4942 147.891,84.9592C147.891,119.715 119.716,147.89 84.9597,147.89C67.5827,147.89 51.8497,140.846 40.4617,129.457L84.9597,84.9592L138.012,51.0982Z" style="fill:black;fill-rule:nonzero;stroke-width:1.92px;stroke:white;"/>
        <path d="M84.9599,22.0299C107.249,22.0299 126.831,33.6179 138.012,51.0979L84.9599,84.9599L78.3329,22.3769C80.5119,22.1479 82.7219,22.0299 84.9599,22.0299" style="fill:black;stroke-width:1.92px;stroke:white;"/>
        <path d="M51.1025,31.9058C59.1235,26.7768 68.3825,23.4178 78.3325,22.3768L84.9595,84.9598L51.1025,31.9058Z" style="fill:black;"/>
        <path d="M51.1025,31.9058C59.1235,26.7768 68.3825,23.4178 78.3325,22.3768L84.9595,84.9598L51.1025,31.9058Z" style="fill:black;fill-rule:nonzero;stroke-width:1.92px;stroke:white;"/>
    </g>
</svg>
